<svg width="448" height="512" xmlns="http://www.w3.org/2000/svg" xmlns:xlink="http://www.w3.org/1999/xlink" xml:space="preserve" overflow="hidden"><defs><clipPath id="clip0"><rect x="416" y="104" width="448" height="512"/></clipPath></defs><g clip-path="url(#clip0)" transform="translate(-416 -104)"><path d="M640 200C678.4 200 713.7 213.5 741.3 236.1L708.7 268.7C704.1 273.3 702.8 280.2 705.2 286.1 707.6 292 713.5 296 720 296L832 296C840.8 296 848 288.8 848 280L848 168C848 161.5 844.1 155.7 838.1 153.2 832.1 150.7 825.2 152.1 820.7 156.7L786.7 190.7C747.4 156.6 696.1 136 640 136 629.1 136 618.5 136.8 608 138.3L608 203.2C618.3 201.1 629 200 640 200ZM516.1 258.7 548.7 291.3C553.3 295.9 560.2 297.2 566.1 294.8 572 292.4 576 286.5 576 280L576 168C576 159.2 568.8 152 560 152L448 152C441.5 152 435.7 155.9 433.2 161.9 430.7 167.9 432.1 174.8 436.7 179.3L470.7 213.3C436.6 252.6 416 303.9 416 360 416 370.9 416.8 381.5 418.3 392L483.2 392C481.1 381.7 480 371 480 360 480 321.6 493.5 286.3 516.1 258.7ZM861.7 328 796.8 328C798.9 338.3 800 349 800 360 800 398.4 786.5 433.7 763.9 461.3L731.3 428.7C726.7 424.1 719.8 422.8 713.9 425.2 708 427.6 704 433.5 704 440L704 552C704 560.8 711.2 568 720 568L832 568C838.5 568 844.3 564.1 846.8 558.1 849.3 552.1 847.9 545.2 843.3 540.7L809.3 506.7C843.4 467.4 864 416.1 864 360 864 349.1 863.2 338.5 861.7 328ZM640 520C601.6 520 566.3 506.5 538.7 483.9L571.3 451.3C575.9 446.7 577.2 439.8 574.8 433.9 572.4 428 566.5 424 560 424L448 424C439.2 424 432 431.2 432 440L432 552C432 558.5 435.9 564.3 441.9 566.8 447.9 569.3 454.8 567.9 459.3 563.3L493.3 529.3C532.6 563.4 583.9 584 640 584 650.9 584 661.5 583.2 672 581.7L672 516.8C661.7 518.9 651 520 640 520Z" fill="#FFD66D"/></g></svg>