<?xml version="1.0" encoding="utf-8" ?>
<svg xmlns="http://www.w3.org/2000/svg" xmlns:xlink="http://www.w3.org/1999/xlink" width="512" height="511">
	<path fill="#D7DACE" transform="scale(0.666667 0.666667)" d="M-0 -0L768 0L768 768L-0 768L0 -0Z"/>
	<path fill="#576963" transform="scale(0.666667 0.666667)" d="M682.064 413.33L728.246 399.09C733.23 397.318 738.603 395.692 743.244 393.124C745.851 391.681 749.253 389.259 750.711 386.625C751.375 385.427 751.637 384.416 751.778 383.062C750.783 380.05 748.67 378.365 745.92 376.967C741.024 374.479 735.413 373.193 730.114 371.858L711.916 367.548C711.329 367.429 710.813 367.248 710.25 367.051C709.104 366.648 707.88 366.425 706.692 366.188C708.549 365.621 714.308 367.534 716.31 367.985L737.098 372.584C741.244 373.474 745.43 374.073 749.539 375.148C752.262 375.86 755.248 376.733 757.733 378.07C758.967 378.733 760.632 379.896 761.03 381.316C761.319 382.351 760.839 383.787 760.272 384.68C756.964 389.896 748.996 391.766 743.606 393.938L717.938 403.539L682.324 413.805L682.064 413.33Z"/>
	<path fill="#FFE9B3" transform="scale(0.666667 0.666667)" d="M513.754 623.007C515.4 622.78 518.713 622.739 520.098 621.893C520.655 621.553 521.335 620.618 521.812 620.126C522.7 621.026 522.081 621.115 522.411 622.125C522.455 622.261 523.113 622.526 523.125 622.53C525.215 623.158 528.393 622.844 530.6 622.86L533.484 622.874C534.847 624.227 535.765 625.327 536.544 627.097L536.472 627.308L535.779 627.318L534.938 625.895C533.034 625.642 532.19 626.087 530.438 626.786L528.562 627.559L527.998 627.748C524.286 629.267 520.874 631.736 517.064 633.014C513.691 634.146 510.331 636.451 506.998 637.873L494.342 642.935C491.161 644.19 487.551 645.984 484.1 645.864C487.242 643.556 490.943 641.899 494.189 639.692C498.819 636.545 502.788 632.743 506.93 629.006C509.183 626.973 511.628 625.18 513.754 623.007Z"/>
	<path fill="#FFE9B3" transform="scale(0.666667 0.666667)" d="M656.781 375.084C656.904 375.83 656.952 376.524 657.315 377.196C658.145 377.757 658.753 378.282 659.438 379.013C660.83 379.098 661.1 378.907 662.1 379.944C662.236 380.651 662.163 380.911 662.684 381.436C661.973 382.714 661.756 382.869 661.931 384.375C662.606 384.712 662.833 384.605 663.566 384.562C664.566 383.899 665.457 383.111 666.368 382.333L667.622 381.857L667.895 382.607C666.712 383.919 665.613 385.173 664.14 386.175L662.589 387.323L661.297 386.871C660.97 385.126 660.047 384.129 660.762 382.35L660.938 381.941C660.151 381.299 660.46 380.738 659.812 379.875L659.117 380.735L659.08 381.482C658.994 383.012 659.233 384.894 658.795 386.357C658.365 387.793 656.837 389.289 656.803 390.75C656.775 391.977 656.741 393.321 656.404 394.508C655.823 396.557 655.48 401.943 656.279 403.936C656.769 405.156 657.944 405.491 659.061 406.031L659.812 405.941C662.168 407.5 664.02 406.663 666.562 406.691C667.177 406.698 667.535 406.933 668.18 406.804L668.625 406.688C669.342 406.506 669.41 406.466 669.938 405.941L670.5 406.125C670.839 406.001 671.241 405.876 671.531 405.656C672.278 405.091 673.001 403.801 673.084 402.885C673.149 402.169 673.042 402.524 673.4 401.807C673.71 401.187 673.674 401.4 673.793 400.805L674.25 398.812C674.538 397.971 674.396 397.314 674.625 396.562C674.914 395.617 674.757 394.797 675 393.938C675.292 392.905 675.443 392.293 675.335 391.189C675.283 390.656 675.309 390.156 675.283 389.625C675.152 386.975 675.849 384.174 675.658 381.375C675.6 380.526 675.517 380.227 675.864 379.425L676.173 378.741L676.221 379.262C676.724 385.286 676.391 392.818 674.939 398.699C674.326 401.179 673.116 403.69 672.755 406.163C672.198 409.981 670.975 414.475 669.559 418.062C672.925 417.162 676.812 416.485 679.941 414.941C680.14 415.756 680.243 416.136 680.115 416.982C678.925 416.668 678.157 417.217 677.049 417.554L669.591 419.62C665.062 418.498 661.027 421.954 656.438 422.059C656.36 421.462 656.473 421.364 656.695 420.826L657.938 420.385C657.307 416.694 657.341 411.172 657.817 407.438L659.097 406.744L656.604 405.687C656.22 405.316 656.197 405.329 655.865 404.812C654.333 402.428 655.162 396.026 655.972 393.436L655.619 392.84C654.197 392.974 652.65 392.931 651.266 392.553C650.183 392.256 649.252 391.623 648.703 390.626C645.886 385.509 649.41 381.976 653.206 379.042C654.848 377.773 656.282 377.18 656.781 375.084Z"/>
	<path fill="#F79051" transform="scale(0.666667 0.666667)" d="M659.097 406.744C663.481 407.812 666.298 407.533 670.711 406.99C669.55 408.999 668.591 411.005 667.657 413.128C667.058 414.491 666.264 416.559 665.165 417.537C663.752 418.796 660.361 419.768 658.506 420.245L657.938 420.385C657.307 416.694 657.341 411.172 657.817 407.438L659.097 406.744Z"/>
	<path fill="#685F59" transform="scale(0.666667 0.666667)" d="M233.574 624.064L235.047 624.114C224.505 639.7 209.975 650.984 191.288 654.681C174.17 658.067 152.915 654.877 138.352 645.091C133.223 641.645 128.816 637.614 124.346 633.384C126.22 632.675 128.025 631.567 129.799 630.632C130.385 630.979 130.92 631.292 131.447 631.727L131.46 631.795C132.305 633.258 133.775 634.583 134.968 635.756C138.125 638.862 141.738 641.683 145.548 643.948C160.731 652.972 179.113 654.833 196.098 650.497C206.451 647.854 215.473 642.52 223.486 635.537C227.288 632.223 231.008 628.433 233.574 624.064Z"/>
	<path fill="#685F59" transform="scale(0.666667 0.666667)" d="M105.419 581.503C106.22 581.245 106.97 581.007 107.706 580.586C108.222 580.29 108.137 580.434 108.25 579.893C108.68 577.841 108.543 575.631 108.835 573.543C109.378 569.665 110.301 565.705 111.351 561.938C116.833 542.269 130.459 530.5 147.618 520.937L148.197 522.006C142.536 525.58 137.001 529.665 132.432 534.586C123.098 544.638 116.81 558.65 113.818 571.976C113.148 574.96 112.31 578.186 112.576 581.25L113.486 581.935C113.717 583.008 114.029 583.95 113.695 585.028L113.237 586.502L111.934 586.688C111.25 587.784 111.583 589.188 111.69 590.419C111.985 593.825 112.493 597.256 113.278 600.585C115.096 608.295 118.526 615.906 122.814 622.558C123.784 624.062 124.944 626.182 126.546 627.084L127.18 627.392C126.37 627.727 125.893 627.557 125.062 627.36C123.384 627.784 121.932 628.59 120.628 629.736L119.786 630.141C119.01 629.366 118.46 628.781 118.02 627.747L114.562 621.674C109.515 612.014 105.576 599.901 107.385 588.858C107.613 587.466 108.309 586.305 108.615 584.966C108.873 583.837 108.951 582.835 108.375 581.849L106.21 582.484L105.419 581.503Z"/>
	<path fill="#FFC176" transform="scale(0.666667 0.666667)" d="M676.173 378.741C676.396 354.009 672.281 328.631 666.532 304.637L660.226 281.063C663.526 285.263 665.634 291.987 667.533 297C679.514 328.626 682.578 362.044 681.241 395.592C681.024 401.037 680.007 406.918 680.349 412.309C680.35 412.326 680.401 413.079 680.414 413.094C680.449 413.136 681.112 413.314 681.179 413.323L682.064 413.33L682.324 413.805L679.941 414.941C676.812 416.485 672.925 417.162 669.559 418.062C670.975 414.475 672.198 409.981 672.755 406.163C673.116 403.69 674.326 401.179 674.939 398.699C676.391 392.818 676.724 385.286 676.221 379.262L676.173 378.741Z"/>
	<path fill="#576963" transform="scale(0.666667 0.666667)" d="M105.419 581.503L106.21 582.484L105.797 582.797C104.532 583.717 102.678 584.283 101.214 584.825C97.1936 586.314 92.9801 587.381 88.8563 588.546C78.6514 591.429 68.36 594.259 58.4373 598.018C52.9138 600.11 47.3571 602.352 42.4209 605.644C40.3274 607.04 37.1914 609.118 36.7318 611.784C36.416 613.616 37.0763 615.332 38.2158 616.752C43.1582 622.907 55.1875 623.893 62.4107 624.865L78.8994 626.707L108.683 627.974C111.33 628.023 115.606 628.629 118.02 627.747C118.46 628.781 119.01 629.366 119.786 630.141C119.354 630.983 117.596 631.964 116.747 632.299C113.256 633.68 106.905 632.77 103.147 632.635C89.2769 632.135 75.6821 631.034 61.9321 629.168C53.3247 628.001 44.2267 626.715 36.1383 623.434C32.9418 622.137 25.8823 619.048 24.8587 615.554C24.3426 613.793 24.5525 612.184 25.45 610.592C27.6521 606.684 33.2274 604.107 37.1296 602.234C58.7419 591.862 82.5561 588.06 105.419 581.503Z"/>
	<path fill="#FFC176" transform="scale(0.666667 0.666667)" d="M669.591 419.62L677.049 417.554C678.157 417.217 678.925 416.668 680.115 416.982L680.01 417.316C678.778 421.364 678.163 425.744 677.211 429.886C675.351 437.977 673.147 446.273 670.441 454.125C664.053 472.655 654.939 489.87 644.71 506.531L637.852 517.869C632.431 525.913 626.143 533.25 620.915 541.468L619.688 541.935C618.641 541.135 618.126 540.877 617.589 539.651C632.04 513.802 648.57 488.413 658.885 460.5C663.801 447.199 666.832 433.486 669.591 419.62Z"/>
	<path fill="#D7DACE" transform="scale(0.666667 0.666667)" d="M656.695 420.826C656.473 421.364 656.36 421.462 656.438 422.059C661.027 421.954 665.062 418.498 669.591 419.62C666.832 433.486 663.801 447.199 658.885 460.5C648.57 488.413 632.04 513.802 617.589 539.651L616.681 539.891C615.145 539.366 612.868 539.201 611.681 538.143L626.812 507.865C634.901 490.377 642.171 472.36 647.243 453.75L653.803 424.028C653.93 423.802 653.746 422.223 653.733 421.861L654.882 421.396L656.695 420.826Z"/>
	<path fill="#D7DACE" transform="scale(0.666667 0.666667)" d="M106.21 582.484L108.375 581.849C108.951 582.835 108.873 583.837 108.615 584.966C108.309 586.305 107.613 587.466 107.385 588.858C105.576 599.901 109.515 612.014 114.562 621.674L118.02 627.747C115.606 628.629 111.33 628.023 108.683 627.974L78.8994 626.707L62.4107 624.865C55.1875 623.893 43.1582 622.907 38.2158 616.752C37.0763 615.332 36.416 613.616 36.7318 611.784C37.1914 609.118 40.3274 607.04 42.4209 605.644C47.3571 602.352 52.9138 600.11 58.4373 598.018C68.36 594.259 78.6514 591.429 88.8563 588.546C92.9801 587.381 97.1936 586.314 101.214 584.825C102.678 584.283 104.532 583.717 105.797 582.797L106.21 582.484Z"/>
	<path fill="#FFDC74" transform="scale(0.666667 0.666667)" d="M573.323 532.818C574.064 533.228 573.703 533.201 574.331 533.08C583.656 531.28 594.032 532.095 603.07 535C605.902 535.911 608.633 537.239 611.467 538.041L611.681 538.143C612.868 539.201 615.145 539.366 616.681 539.891L617.589 539.651C618.126 540.877 618.641 541.135 619.688 541.935L620.915 541.468C620.978 541.96 620.961 542.469 621.105 542.944C621.696 544.894 625.065 547.591 626.384 549.261C631.09 555.222 635.68 561.731 639.197 568.463C640.568 571.088 642.033 573.722 642.714 576.621L643.696 578.09C644.689 581.067 644.676 584.699 644.911 587.824C645.279 592.694 645.645 597.731 645.212 602.607C644.595 609.555 641.995 617.154 638.871 623.359C632.167 636.677 618.655 649.62 604.295 654.11C590.015 658.575 572.108 656.148 558.999 649.163C552.181 645.53 546.502 640.332 541.482 634.512C539.595 632.324 537.572 630.014 536.472 627.308L536.544 627.097C535.765 625.327 534.847 624.227 533.484 622.874C532.256 620.999 531.519 618.452 530.836 616.312C528.648 609.454 527.869 602.636 527.563 595.484C527.814 593.876 529.015 587.306 530.282 586.445C530.794 586.098 532.294 585.91 532.906 585.818C535.761 585.389 540.559 585.68 542.738 583.767L531 584.365C530.4 583.563 530.793 582.006 530.881 580.986L530.884 577.613L531.318 575.358L535.294 566.869C538.922 563.697 540.704 560.071 543.447 556.269C546.907 551.474 550.786 547.153 555.177 543.2C558.021 540.639 561.112 537.996 564.539 536.238C565.947 535.516 567.546 534.88 569.062 534.425C570.579 533.97 572.119 533.943 573.323 532.818Z"/>
	<path fill="#576963" transform="scale(0.666667 0.666667)" d="M642.714 576.621L643.696 578.09L589.944 581.797C590.707 581.129 592.062 579.3 592.905 578.869C593.459 578.586 595.088 578.546 595.735 578.479C599.591 578.082 603.561 578.278 607.44 578.126L642.714 576.621Z"/>
	<path fill="#576963" transform="scale(0.666667 0.666667)" d="M530.881 580.986L592.289 578.559C591.415 579.319 589.696 581.272 588.721 581.659C587.875 581.994 585.917 581.936 585 581.974L575.533 582.144C572.453 582.214 543.674 583.131 542.738 583.767L531 584.365C530.4 583.563 530.793 582.006 530.881 580.986Z"/>
	<path fill="#F79051" transform="scale(0.666667 0.666667)" d="M603.029 205.868C607.951 212.243 612.047 219.155 616.057 226.125C635.989 260.769 649.288 300.596 654.661 340.187C655.093 343.37 655.622 346.678 655.826 349.875C656.358 358.221 655.966 366.773 656.781 375.084C656.282 377.18 654.848 377.773 653.206 379.042C649.41 381.976 645.886 385.509 648.703 390.626C649.252 391.623 650.183 392.256 651.266 392.553C652.65 392.931 654.197 392.974 655.619 392.84L655.972 393.436C655.162 396.026 654.333 402.428 655.865 404.812C656.197 405.329 656.22 405.316 656.604 405.687L659.097 406.744L657.817 407.438C657.341 411.172 657.307 416.694 657.938 420.385L656.695 420.826L654.882 421.396L653.733 421.861C652.035 421.895 649.961 422.741 648.261 423.122L636.86 425.345C624.521 427.461 612.168 428.83 599.668 429.439C595.666 429.634 591.698 430.074 587.685 429.984L590.488 416.213C592.365 404.411 592.956 392.648 592.947 380.708C592.938 369.51 592.507 358.147 590.912 347.046C587.892 326.037 581.166 306.224 572.637 286.875C567.58 275.402 562.017 264.039 554.96 253.644C550.472 247.032 545.649 240.614 540.171 234.785C536.794 231.191 532.452 227.933 529.62 223.935L529.396 223.605L539.463 213.279C550.621 220.462 561.951 223.616 575.18 221.352C584.961 219.677 597.2 214.146 603.029 205.868Z"/>
	<path fill="#C87343" transform="scale(0.666667 0.666667)" d="M656.604 405.687L659.097 406.744L657.817 407.438C657.341 411.172 657.307 416.694 657.938 420.385L656.695 420.826L654.882 421.396C655.646 416.189 655.931 411.583 655.886 406.323L656.604 405.687Z"/>
	<path fill="#F79051" transform="scale(0.666667 0.666667)" d="M500.514 577.581C502.27 577.531 504.12 577.516 505.841 577.899C510.726 578.986 516.702 577.771 521.601 576.952L531.318 575.358L530.884 577.613L530.881 580.986C530.793 582.006 530.4 583.563 531 584.365L542.738 583.767C540.559 585.68 535.761 585.389 532.906 585.818C532.294 585.91 530.794 586.098 530.282 586.445C529.015 587.306 527.814 593.876 527.563 595.484C527.869 602.636 528.648 609.454 530.836 616.312C531.519 618.452 532.256 620.999 533.484 622.874L530.6 622.86C528.393 622.844 525.215 623.158 523.125 622.53C523.113 622.526 522.455 622.261 522.411 622.125C522.081 621.115 522.7 621.026 521.812 620.126C521.335 620.618 520.655 621.553 520.098 621.893C518.713 622.739 515.4 622.78 513.754 623.007C511.628 625.18 509.183 626.973 506.93 629.006C502.788 632.743 498.819 636.545 494.189 639.692C490.943 641.899 487.242 643.556 484.1 645.864C483.543 645.861 482.469 646.468 481.935 646.684L476.886 648.723L466.402 652.44C453.445 656.646 440.368 659.478 426.906 661.516C407.351 664.477 386.661 665.524 366.927 664.388C358.012 663.874 349.116 662.695 340.278 661.449C331.984 660.28 323.666 659.1 315.483 657.29C294.874 652.733 275.059 645.606 256.319 635.896L243.445 628.966C241.182 627.707 238.785 626.563 236.712 625.005C236.241 624.651 235.946 624.364 235.373 624.182L235.047 624.114L233.574 624.064L234.523 622.626C236.096 621.135 237.219 618.511 238.235 616.585C241.653 610.105 244.401 603.274 245.375 595.972C245.796 592.817 245.757 589.522 245.846 586.34C248.089 586.735 250.531 586.344 252.785 586.142L262.944 585.304L264.722 584.156L266.598 584.115L267.599 583.67L268.053 583.852C272.183 585.436 276.228 584.616 280.5 584.794C283.683 584.926 287.255 585.662 290.322 586.514C294.051 587.549 297.704 589.283 301.262 590.793C306.836 593.158 312.282 595.406 318.103 597.103C329.057 600.297 340.99 601.915 352.312 603.019C361.829 603.946 371.33 604.783 380.9 604.818C394.057 604.865 407.301 603.63 420.293 601.592L439.008 598.205L450.198 595.799C453.791 594.906 459.153 592.75 462.786 593.313L465.023 592.212C467.994 588.067 472.261 585.52 476.467 582.813L494.253 578.389L500.514 577.581Z"/>
	<path fill="#FFE9B3" transform="scale(0.666667 0.666667)" d="M264.722 584.156L266.598 584.115C275.026 587.938 283.256 592.224 291.938 595.469C299.272 598.211 307.129 599.956 314.272 603.188C316.187 604.054 317.874 604.975 319.06 606.75C318.666 607.555 318.946 607.37 318.182 607.634C315.832 608.446 312.279 607.708 309.898 607.214C302.222 605.619 294.978 602.292 287.894 599.028L271.882 591.273C268.756 589.562 265.595 587.702 262.944 585.304L264.722 584.156Z"/>
	<path fill="#D7DACE" transform="scale(0.666667 0.666667)" d="M500.514 577.581C502.27 577.531 504.12 577.516 505.841 577.899C510.726 578.986 516.702 577.771 521.601 576.952L531.318 575.358L530.884 577.613L530.881 580.986C530.793 582.006 530.4 583.563 531 584.365L542.738 583.767C540.559 585.68 535.761 585.389 532.906 585.818C532.294 585.91 530.794 586.098 530.282 586.445C529.015 587.306 527.814 593.876 527.563 595.484C527.869 602.636 528.648 609.454 530.836 616.312C531.519 618.452 532.256 620.999 533.484 622.874L530.6 622.86C528.393 622.844 525.215 623.158 523.125 622.53C523.113 622.526 522.455 622.261 522.411 622.125C522.081 621.115 522.7 621.026 521.812 620.126C521.335 620.618 520.655 621.553 520.098 621.893C518.713 622.739 515.4 622.78 513.754 623.007L488.26 621.136C480.308 620.654 472.41 621.444 464.637 619.343C459.466 617.946 453.928 616.449 451.119 611.511L450.713 611.271C450.005 609.17 450.323 606.041 450.916 603.94C452.228 599.286 458.951 595.603 462.786 593.313L465.023 592.212C467.994 588.067 472.261 585.52 476.467 582.813L494.253 578.389L500.514 577.581Z"/>
	<path fill="#576963" transform="scale(0.666667 0.666667)" d="M500.514 577.581C502.27 577.531 504.12 577.516 505.841 577.899C510.726 578.986 516.702 577.771 521.601 576.952L531.318 575.358L530.884 577.613L520.894 578.907L489.048 585.372L473.691 589.581C470.822 590.45 467.958 591.598 465.023 592.212C467.994 588.067 472.261 585.52 476.467 582.813L494.253 578.389L500.514 577.581Z"/>
	<path fill="#576963" transform="scale(0.666667 0.666667)" d="M451.119 611.511C451.166 607.15 452.475 604.598 454.588 600.887L454.961 603.366C455.643 606.482 458.234 608.685 460.828 610.311C462.298 611.232 464.913 612.697 466.634 612.866C468.635 613.063 473.024 610.574 474.938 609.846C476.817 609.131 478.838 608.676 480.785 608.186L520.683 599.871C520.533 601.788 520.149 603.862 521.332 605.493C523.752 604.374 526.047 597.965 527.563 595.484C527.869 602.636 528.648 609.454 530.836 616.312C531.519 618.452 532.256 620.999 533.484 622.874L530.6 622.86C528.393 622.844 525.215 623.158 523.125 622.53C523.113 622.526 522.455 622.261 522.411 622.125C522.081 621.115 522.7 621.026 521.812 620.126C521.335 620.618 520.655 621.553 520.098 621.893C518.713 622.739 515.4 622.78 513.754 623.007L488.26 621.136C480.308 620.654 472.41 621.444 464.637 619.343C459.466 617.946 453.928 616.449 451.119 611.511Z"/>
	<path fill="#FFE9B3" transform="scale(0.666667 0.666667)" d="M157.382 221.078C168.55 205.491 180.497 190.136 193.958 176.439C221.689 148.224 255.953 127.002 293.066 113.62C306.56 108.755 319.794 104.362 333.933 101.71C387.9 91.584 445.261 97.6366 495.159 120.897C506.071 125.984 516.438 131.508 526.387 138.297C523.541 141.274 521.431 144.75 519.188 148.18C517.806 150.292 516.151 152.441 515.078 154.728L515.63 154.858L519.002 149.934L519.191 150.188C518.789 151.583 518.222 153.397 517.688 154.691L517.316 155.25L516.846 157.301C516.472 158.765 516.458 160.72 516.853 162.195C517.045 162.914 516.806 163.808 516.697 164.539L516.503 164.676C516.148 171.168 516.659 176.972 518.295 183.264L518.97 188.177C520 190.391 520.878 192.647 522.119 194.758C525.572 200.633 529.98 205.062 534.988 209.603C536.795 210.695 538.071 211.656 539.463 213.279L529.396 223.605L529.62 223.935C532.452 227.933 536.794 231.191 540.171 234.785C545.649 240.614 550.472 247.032 554.96 253.644C562.017 264.039 567.58 275.402 572.637 286.875C581.166 306.224 587.892 326.037 590.912 347.046C592.507 358.147 592.938 369.51 592.947 380.708C592.956 392.648 592.365 404.411 590.488 416.213L587.685 429.984C591.698 430.074 595.666 429.634 599.668 429.439C612.168 428.83 624.521 427.461 636.86 425.345L648.261 423.122C649.961 422.741 652.035 421.895 653.733 421.861C653.746 422.223 653.93 423.802 653.803 424.028L647.243 453.75C642.171 472.36 634.901 490.377 626.812 507.865L611.681 538.143L611.467 538.041C608.633 537.239 605.902 535.911 603.07 535C594.032 532.095 583.656 531.28 574.331 533.08C573.703 533.201 574.064 533.228 573.323 532.818C572.119 533.943 570.579 533.97 569.062 534.425C567.546 534.88 565.947 535.516 564.539 536.238C561.112 537.996 558.021 540.639 555.177 543.2C550.786 547.153 546.907 551.474 543.447 556.269C540.704 560.071 538.922 563.697 535.294 566.869L531.318 575.358L521.601 576.952C516.702 577.771 510.726 578.986 505.841 577.899C504.12 577.516 502.27 577.531 500.514 577.581L494.253 578.389L476.467 582.813C472.261 585.52 467.994 588.067 465.023 592.212L462.786 593.313C459.153 592.75 453.791 594.906 450.198 595.799L439.008 598.205L420.293 601.592C407.301 603.63 394.057 604.865 380.9 604.818C371.33 604.783 361.829 603.946 352.312 603.019C340.99 601.915 329.057 600.297 318.103 597.103C312.282 595.406 306.836 593.158 301.262 590.793C297.704 589.283 294.051 587.549 290.322 586.514C287.255 585.662 283.683 584.926 280.5 584.794C276.228 584.616 272.183 585.436 268.053 583.852L267.599 583.67L266.598 584.115L264.722 584.156L262.944 585.304L252.785 586.142C250.531 586.344 248.089 586.735 245.846 586.34C245.757 589.522 245.796 592.817 245.375 595.972C244.401 603.274 241.653 610.105 238.235 616.585C237.219 618.511 236.096 621.135 234.523 622.626L233.574 624.064C231.008 628.433 227.288 632.223 223.486 635.537C215.473 642.52 206.451 647.854 196.098 650.497C179.113 654.833 160.731 652.972 145.548 643.948C141.738 641.683 138.125 638.862 134.968 635.756C133.775 634.583 132.305 633.258 131.46 631.795L131.447 631.727C130.92 631.292 130.385 630.979 129.799 630.632C128.025 631.567 126.22 632.675 124.346 633.384C123.851 633.031 123.473 632.761 123.194 632.204C122.516 630.852 121.952 630.462 120.628 629.736C121.932 628.59 123.384 627.784 125.062 627.36C125.893 627.557 126.37 627.727 127.18 627.392L126.546 627.084C124.944 626.182 123.784 624.062 122.814 622.558C118.526 615.906 115.096 608.295 113.278 600.585C112.493 597.256 111.985 593.825 111.69 590.419C111.583 589.188 111.25 587.784 111.934 586.688L113.237 586.502L113.695 585.028C114.029 583.95 113.717 583.008 113.486 581.935L112.576 581.25C112.31 578.186 113.148 574.96 113.818 571.976C116.81 558.65 123.098 544.638 132.432 534.586C137.001 529.665 142.536 525.58 148.197 522.006L147.618 520.937C147.877 520.593 149.896 519.847 150.385 519.622L138.152 494.863C131.787 480.533 126.217 465.765 122.248 450.579C116.452 428.404 113.733 405.737 113.296 382.836L113.837 361.599C114.642 342.713 116.66 323.166 121.275 304.82C124.87 290.53 130.076 276.625 135.56 262.969L141.495 248.547C142.304 246.695 143.021 244.508 144.101 242.805C144.729 241.817 146.102 241.023 147.026 240.312C148.832 238.922 150.566 237.527 152.139 235.867C156.186 231.595 156.877 227.629 156.741 221.999L157.382 221.078Z"/>
	<path fill="#F79051" transform="scale(0.666667 0.666667)" d="M507.51 184.928C509.984 180.315 511.779 174.768 513.675 169.875C514.393 168.02 514.892 165.955 516.083 164.343L516.503 164.676C516.148 171.168 516.659 176.972 518.295 183.264L507.51 184.928Z"/>
	<path fill="#FFC176" transform="scale(0.666667 0.666667)" d="M518.97 188.177C520 190.391 520.878 192.647 522.119 194.758C525.572 200.633 529.98 205.062 534.988 209.603L525.572 219.753L503.712 246.078L502.948 247.831C501.324 249.274 499.988 251.291 498.586 252.961C495.733 256.359 492.926 259.572 490.367 263.211L479.372 251.218L481.51 247.742C481.233 244.763 483.448 240.68 484.496 237.868C489.113 225.472 494.194 213.208 500.078 201.354L506.072 189.072L518.97 188.177Z"/>
	<path fill="#F79051" transform="scale(0.666667 0.666667)" d="M481.51 247.742C484.861 244.718 488.53 242.96 493.06 242.584C497.185 242.243 500.545 243.4 503.712 246.078L502.948 247.831C501.324 249.274 499.988 251.291 498.586 252.961C495.733 256.359 492.926 259.572 490.367 263.211L479.372 251.218L481.51 247.742Z"/>
	<path fill="#F79051" transform="scale(0.666667 0.666667)" d="M518.97 188.177C520 190.391 520.878 192.647 522.119 194.758C525.572 200.633 529.98 205.062 534.988 209.603L525.572 219.753C521.252 215.418 515.928 211.443 510.881 207.993C507.377 205.598 503.937 203.159 500.078 201.354L506.072 189.072L518.97 188.177Z"/>
	<path fill="#FFDC74" transform="scale(0.666667 0.666667)" d="M382.46 333.531C393.385 333.042 402.57 335.348 411.465 341.753C420.796 348.472 428.333 359.818 430.087 371.289C431.665 381.608 428.489 394.067 422.302 402.429C414.742 412.645 403.091 418.065 390.841 419.943C382.896 421.105 374.052 419.494 366.75 416.209C356.255 411.488 349.06 403.689 344.876 393.086C343.412 389.374 342.418 385.364 342.102 381.38C341.151 369.39 344.39 358.111 352.298 348.938C360.209 339.76 370.417 334.494 382.46 333.531Z"/>
	<defs>
		<linearGradient id="gradient_0" gradientUnits="userSpaceOnUse" x1="215.2738" y1="571.91199" x2="217.40009" y2="590.2677">
			<stop offset="0" stop-color="#AAA37E"/>
			<stop offset="1" stop-color="#CECEA7"/>
		</linearGradient>
	</defs>
	<path fill="url(#gradient_0)" transform="scale(0.666667 0.666667)" d="M302.972 561.666C306.037 563.193 309.08 564.419 311.238 567.188C311.675 568.723 311.864 569.869 311.187 571.372C309.399 575.34 302.329 577.989 298.688 579.526L298.688 579L299.344 578.719L299.865 578.479C301.848 577.577 303.798 576.872 305.625 575.625L306.17 575.273C307.224 574.571 308.01 573.756 309.094 573.094L309.75 572.438C309.492 571.827 309.256 571.383 308.867 570.842C308.323 570.086 308.55 570.496 308.25 569.665C307.816 568.46 306.334 567.324 305.421 566.443C304.751 568.669 304.184 570.819 302.098 572.18L301.625 572.42C300.178 573.102 298.801 573.567 297.28 574.029C296.698 574.207 296.42 574.213 295.844 574.214C292.701 574.22 289.365 575.497 286.125 575.66C282.691 575.834 279.269 576.938 275.812 577.001C276.065 577.953 276.323 578.402 276.98 579.136L276.76 579.904C274.549 579.748 270.818 582.098 268.445 582.849C266.895 583.339 266.077 583.098 264.722 584.156L262.944 585.304L252.785 586.142C250.531 586.344 248.089 586.735 245.846 586.34C245.757 589.522 245.796 592.817 245.375 595.972C244.401 603.274 241.653 610.105 238.235 616.585C237.219 618.511 236.096 621.135 234.523 622.626L233.574 624.064C231.008 628.433 227.288 632.223 223.486 635.537C215.473 642.52 206.451 647.854 196.098 650.497C179.113 654.833 160.731 652.972 145.548 643.948C141.738 641.683 138.125 638.862 134.968 635.756C133.775 634.583 132.305 633.258 131.46 631.795L131.447 631.727C130.92 631.292 130.385 630.979 129.799 630.632C128.025 631.567 126.22 632.675 124.346 633.384C123.851 633.031 123.473 632.761 123.194 632.204C122.516 630.852 121.952 630.462 120.628 629.736C121.932 628.59 123.384 627.784 125.062 627.36C125.893 627.557 126.37 627.727 127.18 627.392L126.546 627.084C124.944 626.182 123.784 624.062 122.814 622.558C118.526 615.906 115.096 608.295 113.278 600.585C112.493 597.256 111.985 593.825 111.69 590.419C111.583 589.188 111.25 587.784 111.934 586.688L113.237 586.502L113.695 585.028C114.029 583.95 113.717 583.008 113.486 581.935L124.221 582.811C126.152 582.524 128.756 582.925 130.748 582.976L146.643 583.231L188.742 582.058L201.495 581.585C203.575 581.505 205.418 581.772 207.508 581.328C210.938 581.366 214.452 580.856 217.875 580.578L237.83 578.863L278.825 575.884C286.367 575.124 294.508 574.651 301.617 571.88C303.236 570.383 304.135 569.496 304.491 567.269C304.864 564.926 304.353 563.512 302.972 561.666Z"/>
	<path fill="#939379" transform="scale(0.666667 0.666667)" d="M113.486 581.935L124.221 582.811L120.547 583.46L120.612 583.959L120.684 585.75C121.322 586.64 120.701 586.027 121.761 586.392L122.438 586.875L123 586.783L125.062 586.875L126.748 586.997L126.375 587.336C124.633 587.244 122.834 587.036 121.102 587.277C118.542 587.287 115.742 587.019 113.237 586.502L113.695 585.028C114.029 583.95 113.717 583.008 113.486 581.935Z"/>
	<path fill="#FFE9B3" transform="scale(0.666667 0.666667)" d="M190.997 588.879L222.052 587.296L235.125 586.528C238.343 586.31 242.753 585.553 245.846 586.34C245.757 589.522 245.796 592.817 245.375 595.972C244.401 603.274 241.653 610.105 238.235 616.585C237.219 618.511 236.096 621.135 234.523 622.626L191.225 590.019L189.977 589.404L190.997 588.879Z"/>
	<path fill="#FFE9B3" transform="scale(0.666667 0.666667)" d="M113.237 586.502C115.742 587.019 118.542 587.287 121.102 587.277C127.581 588.344 134.659 588.065 141.243 588.212L187.48 588.87L190.997 588.879L189.977 589.404L191.225 590.019C185.431 595.598 177.729 599.365 170.812 603.37L153.9 614.187C147.579 618.312 141.114 622.028 135.634 627.28C134.145 628.707 132.583 629.994 131.447 631.727C130.92 631.292 130.385 630.979 129.799 630.632C128.025 631.567 126.22 632.675 124.346 633.384C123.851 633.031 123.473 632.761 123.194 632.204C122.516 630.852 121.952 630.462 120.628 629.736C121.932 628.59 123.384 627.784 125.062 627.36C125.893 627.557 126.37 627.727 127.18 627.392L126.546 627.084C124.944 626.182 123.784 624.062 122.814 622.558C118.526 615.906 115.096 608.295 113.278 600.585C112.493 597.256 111.985 593.825 111.69 590.419C111.583 589.188 111.25 587.784 111.934 586.688L113.237 586.502Z"/>
	<path fill="#FFDC74" transform="scale(0.666667 0.666667)" d="M187.48 588.87L190.997 588.879L189.977 589.404L191.225 590.019C185.431 595.598 177.729 599.365 170.812 603.37L153.9 614.187C147.579 618.312 141.114 622.028 135.634 627.28C134.145 628.707 132.583 629.994 131.447 631.727C130.92 631.292 130.385 630.979 129.799 630.632L129.931 630.176C129.499 629.025 129.213 628.086 129.126 626.857C131.176 625.233 133.464 623.973 135.609 622.485L153.457 610.502L176.719 595.24C180.133 593.105 182.975 590.842 186.898 589.634L187.5 589.455L187.48 588.87Z"/>
	<path fill="#FFC176" transform="scale(0.666667 0.666667)" d="M191.225 590.019L234.523 622.626L233.574 624.064C231.008 628.433 227.288 632.223 223.486 635.537C215.473 642.52 206.451 647.854 196.098 650.497C179.113 654.833 160.731 652.972 145.548 643.948C141.738 641.683 138.125 638.862 134.968 635.756C133.775 634.583 132.305 633.258 131.46 631.795L131.447 631.727C132.583 629.994 134.145 628.707 135.634 627.28C141.114 622.028 147.579 618.312 153.9 614.187L170.812 603.37C177.729 599.365 185.431 595.598 191.225 590.019Z"/>
	<path fill="#FFC176" transform="scale(0.666667 0.666667)" d="M534.988 209.603C536.795 210.695 538.071 211.656 539.463 213.279L529.396 223.605L529.62 223.935C532.452 227.933 536.794 231.191 540.171 234.785C545.649 240.614 550.472 247.032 554.96 253.644C562.017 264.039 567.58 275.402 572.637 286.875C581.166 306.224 587.892 326.037 590.912 347.046C592.507 358.147 592.938 369.51 592.947 380.708C592.956 392.648 592.365 404.411 590.488 416.213L587.685 429.984C591.698 430.074 595.666 429.634 599.668 429.439C612.168 428.83 624.521 427.461 636.86 425.345L648.261 423.122C649.961 422.741 652.035 421.895 653.733 421.861C653.746 422.223 653.93 423.802 653.803 424.028L647.243 453.75C642.171 472.36 634.901 490.377 626.812 507.865L611.681 538.143L611.467 538.041C608.633 537.239 605.902 535.911 603.07 535C594.032 532.095 583.656 531.28 574.331 533.08C573.703 533.201 574.064 533.228 573.323 532.818C572.119 533.943 570.579 533.97 569.062 534.425C567.546 534.88 565.947 535.516 564.539 536.238C561.112 537.996 558.021 540.639 555.177 543.2C550.786 547.153 546.907 551.474 543.447 556.269C540.704 560.071 538.922 563.697 535.294 566.869L531.318 575.358L521.601 576.952C516.702 577.771 510.726 578.986 505.841 577.899C504.12 577.516 502.27 577.531 500.514 577.581L494.253 578.389L476.467 582.813C472.261 585.52 467.994 588.067 465.023 592.212L462.786 593.313C459.153 592.75 453.791 594.906 450.198 595.799L439.008 598.205L420.293 601.592C407.301 603.63 394.057 604.865 380.9 604.818C371.33 604.783 361.829 603.946 352.312 603.019C340.99 601.915 329.057 600.297 318.103 597.103C312.282 595.406 306.836 593.158 301.262 590.793C297.704 589.283 294.051 587.549 290.322 586.514C287.255 585.662 283.683 584.926 280.5 584.794C276.228 584.616 272.183 585.436 268.053 583.852L267.599 583.67L266.598 584.115L264.722 584.156C266.077 583.098 266.895 583.339 268.445 582.849C270.818 582.098 274.549 579.748 276.76 579.904L276.98 579.136C276.323 578.402 276.065 577.953 275.812 577.001C279.269 576.938 282.691 575.834 286.125 575.66C289.365 575.497 292.701 574.22 295.844 574.214C296.42 574.213 296.698 574.207 297.28 574.029C298.801 573.567 300.178 573.102 301.625 572.42L302.098 572.18C304.184 570.819 304.751 568.669 305.421 566.443C306.334 567.324 307.816 568.46 308.25 569.665C308.55 570.496 308.323 570.086 308.867 570.842C309.256 571.383 309.492 571.827 309.75 572.438L309.094 573.094C308.01 573.756 307.224 574.571 306.17 575.273L305.625 575.625C303.798 576.872 301.848 577.577 299.865 578.479L299.344 578.719L298.688 579L298.688 579.526C302.329 577.989 309.399 575.34 311.187 571.372C311.864 569.869 311.675 568.723 311.238 567.188C309.08 564.419 306.037 563.193 302.972 561.666C299.422 558.942 295.832 556.115 291.782 554.176C290.675 553.646 289.7 553.032 288.469 552.836L292.516 555.039C293.119 555.345 293.632 555.743 294.188 556.125L295.898 557.238C296.483 557.628 296.785 558.003 297.191 558.562L297 559.033C296.052 558.912 295.375 558.167 294.562 557.625L294 557.158L293.555 557.034C292.881 556.831 292.684 556.536 292.125 556.125C291.298 555.517 290.283 554.955 289.312 554.625L289.312 554.885C292.659 557.028 298.91 560.727 300.324 564.562C300.193 567.335 299.03 568.163 297.141 569.951C291.273 571.454 285.152 571.949 279.123 571.312L276.488 571.049C274.197 571.516 271.967 572.253 269.674 572.677C261.887 574.118 254.008 575.003 246.091 575.262C245.434 571.537 244.779 567.942 243.587 564.339C242.239 560.266 240.288 556.333 238.579 552.397L245.09 546.656L289.903 510.109L289.946 510.249C291.214 511.712 293.827 512.818 295.51 513.888C308.416 522.093 322.908 529.853 337.807 533.686C379.608 544.441 426.628 539.23 463.95 517.156C469.787 513.704 475.777 509.79 481 505.467C497.53 491.787 510 474.167 520.556 455.679C525.199 447.548 530.15 438.614 532.403 429.467C536.477 412.934 538.169 396.334 537.84 379.333C537.736 373.987 537.695 368.663 537.022 363.35C535.809 353.783 533.261 343.628 530.17 334.5C528.163 328.572 525.428 322.891 522.816 317.211L517.785 305.997C515.134 300.662 512.133 295.558 509.02 290.483C507.508 288.018 505.548 285.384 504.302 282.811C500.824 275.628 494.732 269.82 490.367 263.211C492.926 259.572 495.733 256.359 498.586 252.961C499.988 251.291 501.324 249.274 502.948 247.831L503.712 246.078L525.572 219.753L534.988 209.603Z"/>
	<path fill="#FFE9B3" transform="scale(0.666667 0.666667)" d="M534.988 209.603C536.795 210.695 538.071 211.656 539.463 213.279L529.396 223.605C528.629 224.581 528.275 224.708 527.3 225.4C525.315 226.808 523.397 229.155 521.758 230.961L511.388 242.571C509.041 245.069 507.362 247.376 504 248.427L502.948 247.831L503.712 246.078L525.572 219.753L534.988 209.603Z"/>
	<path fill="#F79051" transform="scale(0.666667 0.666667)" d="M476.467 582.813C478.002 581.116 480.362 579.898 482.256 578.626C485.421 576.502 488.341 573.849 491.441 571.594C500.093 565.301 508.536 559.017 516.516 551.861C551.875 520.153 577.697 478.461 587.141 431.675C596.676 431.813 606.263 431.057 615.75 430.155L637.367 427.586L653.803 424.028L647.243 453.75C642.171 472.36 634.901 490.377 626.812 507.865L611.681 538.143L611.467 538.041C608.633 537.239 605.902 535.911 603.07 535C594.032 532.095 583.656 531.28 574.331 533.08C573.703 533.201 574.064 533.228 573.323 532.818C572.119 533.943 570.579 533.97 569.062 534.425C567.546 534.88 565.947 535.516 564.539 536.238C561.112 537.996 558.021 540.639 555.177 543.2C550.786 547.153 546.907 551.474 543.447 556.269C540.704 560.071 538.922 563.697 535.294 566.869L531.318 575.358L521.601 576.952C516.702 577.771 510.726 578.986 505.841 577.899C504.12 577.516 502.27 577.531 500.514 577.581L494.253 578.389L476.467 582.813Z"/>
	<path fill="#D7DACE" transform="scale(0.666667 0.666667)" d="M494.253 578.389C494.297 578.138 494.266 577.862 494.385 577.637C494.954 576.565 498.005 574.759 499.008 573.889L506.031 567.156L535.745 538.4C541.268 532.944 546.46 526.941 552.372 521.916L553.196 521.972C555.5 522.265 557.896 523.072 560.161 523.618C562.273 524.128 564.947 524.512 566.849 525.608C569.365 527.057 571.604 530.54 573.323 532.818C572.119 533.943 570.579 533.97 569.062 534.425C567.546 534.88 565.947 535.516 564.539 536.238C561.112 537.996 558.021 540.639 555.177 543.2C550.786 547.153 546.907 551.474 543.447 556.269C540.704 560.071 538.922 563.697 535.294 566.869L531.318 575.358L521.601 576.952C516.702 577.771 510.726 578.986 505.841 577.899C504.12 577.516 502.27 577.531 500.514 577.581L494.253 578.389Z"/>
	<path fill="#F79051" transform="scale(0.666667 0.666667)" d="M157.382 221.078C168.55 205.491 180.497 190.136 193.958 176.439C221.689 148.224 255.953 127.002 293.066 113.62C306.56 108.755 319.794 104.362 333.933 101.71C387.9 91.584 445.261 97.6366 495.159 120.897C506.071 125.984 516.438 131.508 526.387 138.297C523.541 141.274 521.431 144.75 519.188 148.18C517.806 150.292 516.151 152.441 515.078 154.728C514.098 155.86 513.467 157.176 512.768 158.489L511.973 159.867L501.096 185.088L498.703 190.192L498.679 190.191L494.83 197.866C488.38 214.588 478.61 229.917 474.101 247.379C472.706 247.11 471.807 246.031 470.723 245.128L465.135 240.509C459.123 235.908 452.416 232.326 445.544 229.198C423.2 219.028 399.957 215.584 375.562 216.257C357.14 216.766 338.663 219.791 321.376 226.439C310.845 230.488 300.726 236.332 291.375 242.622C269.474 257.355 250.823 278.861 239.259 302.623C233.012 315.458 228.475 330.127 225.81 344.133C223.289 357.384 221.894 371.435 222.51 384.938C223.865 414.658 233.698 445.576 250.468 470.193C258.231 481.59 267.759 491.676 277.759 501.12C280.431 503.644 283.44 506.972 286.797 508.491L250.118 538.588C247.102 541.14 243.203 543.44 240.67 546.468L237.831 546.514C237.077 547.181 237.051 547.305 236.062 547.366L234.978 545.808L233.991 543.75C226.66 529.867 215.395 520.574 200.299 516.051C182.708 510.781 164.228 513.391 148.197 522.006L147.618 520.937C147.877 520.593 149.896 519.847 150.385 519.622L138.152 494.863C131.787 480.533 126.217 465.765 122.248 450.579C116.452 428.404 113.733 405.737 113.296 382.836L113.837 361.599C114.642 342.713 116.66 323.166 121.275 304.82C124.87 290.53 130.076 276.625 135.56 262.969L141.495 248.547C142.304 246.695 143.021 244.508 144.101 242.805C144.729 241.817 146.102 241.023 147.026 240.312C148.832 238.922 150.566 237.527 152.139 235.867C156.186 231.595 156.877 227.629 156.741 221.999L157.382 221.078Z"/>
	<defs>
		<linearGradient id="gradient_1" gradientUnits="userSpaceOnUse" x1="464.54037" y1="137.07303" x2="457.87466" y2="151.86552">
			<stop offset="0" stop-color="#FCB65E"/>
			<stop offset="1" stop-color="#FED67E"/>
		</linearGradient>
	</defs>
	<path fill="url(#gradient_1)" transform="scale(0.666667 0.666667)" d="M511.973 159.867C506.655 157.034 500.781 154.958 495.147 152.838C481.539 147.717 468.171 143.788 454.125 140.136C445.683 137.94 437.18 135.861 428.571 134.426L418.5 133.005C416.323 132.75 412.92 132.663 411.071 131.438L410.96 130.312C411.253 129.892 411.359 129.493 411.874 129.362C413.806 128.867 415.732 129.173 417.681 129.402C421.991 129.908 426.258 130.725 430.5 131.629C452.538 136.324 473.571 142.572 494.596 150.658C500.655 152.988 507.178 155.163 512.768 158.489L511.973 159.867Z"/>
	<path fill="#FFDC74" transform="scale(0.666667 0.666667)" d="M237.831 546.514C232.4 534.274 222.964 525.477 215.252 514.799C202.02 496.476 190.276 475.746 182.652 454.428C178 441.42 174.982 428.087 172.716 414.479C169.46 394.928 168.598 374.881 170.23 355.125C171.213 343.229 172.576 331.607 175.295 319.965C182.382 289.62 197.217 261.716 215.254 236.545C220.605 229.078 226.117 221.796 232.448 215.116C250.048 196.544 271.214 182.619 294.486 172.213C302.339 168.702 310.253 165.426 318.503 162.959C328.518 159.965 338.931 157.94 349.238 156.261C367.254 153.326 386.49 152.628 404.635 154.554C413.042 155.446 421.426 157.127 429.703 158.828C446.236 162.225 461.686 166.709 477.262 173.208C485.317 176.568 494.001 179.975 501.096 185.088L498.703 190.192L498.679 190.191L494.83 197.866C488.38 214.588 478.61 229.917 474.101 247.379C472.706 247.11 471.807 246.031 470.723 245.128L465.135 240.509C459.123 235.908 452.416 232.326 445.544 229.198C423.2 219.028 399.957 215.584 375.562 216.257C357.14 216.766 338.663 219.791 321.376 226.439C310.845 230.488 300.726 236.332 291.375 242.622C269.474 257.355 250.823 278.861 239.259 302.623C233.012 315.458 228.475 330.127 225.81 344.133C223.289 357.384 221.894 371.435 222.51 384.938C223.865 414.658 233.698 445.576 250.468 470.193C258.231 481.59 267.759 491.676 277.759 501.12C280.431 503.644 283.44 506.972 286.797 508.491L250.118 538.588C247.102 541.14 243.203 543.44 240.67 546.468L237.831 546.514Z"/>
	<path fill="#F79051" transform="scale(0.666667 0.666667)" d="M494.83 197.866C492.723 196.624 490.803 195.294 488.607 194.172C488.115 193.921 487.059 193.218 486.562 193.137C485.61 192.981 486.006 193.647 484.898 192.938C489.295 191.398 494.125 191.39 498.679 190.191L494.83 197.866Z"/>
</svg>
