<svg width="96" height="96" xmlns="http://www.w3.org/2000/svg" xmlns:xlink="http://www.w3.org/1999/xlink" xml:space="preserve" overflow="hidden"><defs><clipPath id="clip0"><rect x="455" y="606" width="96" height="96"/></clipPath></defs><g clip-path="url(#clip0)" transform="translate(-455 -606)"><path d="M475 620 469 620 469 688 537 688 537 682 475 682 475 620Z" stroke="#FED069" fill="#FFD96D"/><path d="M526 670 535 670 535 676 526 676Z" stroke="#FED069" fill="#FFD96D"/><path d="M518 660 528 660 528 666 518 666Z" stroke="#FED069" fill="#FFD96D"/><path d="M503 650 523 650 523 656 503 656Z" stroke="#FED069" fill="#FFD96D"/><path d="M492 640 526 640 526 646 492 646Z" stroke="#FED069" fill="#FFD96D"/><path d="M481 630 501 630 501 636 481 636Z" stroke="#FED069" fill="#FFD96D"/></g></svg>