<svg width="512" height="512" xmlns="http://www.w3.org/2000/svg" xmlns:xlink="http://www.w3.org/1999/xlink" xml:space="preserve" overflow="hidden"><defs><clipPath id="clip0"><rect x="384" y="104" width="512" height="512"/></clipPath></defs><g clip-path="url(#clip0)" transform="translate(-384 -104)"><path d="M416 136C433.7 136 448 150.3 448 168L448 504C448 512.8 455.2 520 464 520L864 520C881.7 520 896 534.3 896 552 896 569.7 881.7 584 864 584L464 584C419.8 584 384 548.2 384 504L384 168C384 150.3 398.3 136 416 136ZM512 232C512 214.3 526.3 200 544 200L640 200C657.7 200 672 214.3 672 232 672 249.7 657.7 264 640 264L544 264C526.3 264 512 249.7 512 232ZM608 296 736 296C753.7 296 768 310.3 768 328 768 345.7 753.7 360 736 360L608 360C590.3 360 576 345.7 576 328 576 310.3 590.3 296 608 296ZM768 392 832 392C849.7 392 864 406.3 864 424 864 441.7 849.7 456 832 456L768 456C750.3 456 736 441.7 736 424 736 406.3 750.3 392 768 392Z" fill="#FFD66D"/></g></svg>