<svg width="96" height="96" xmlns="http://www.w3.org/2000/svg" xmlns:xlink="http://www.w3.org/1999/xlink" xml:space="preserve" overflow="hidden"><defs><clipPath id="clip0"><rect x="64" y="22" width="96" height="96"/></clipPath></defs><g clip-path="url(#clip0)" transform="translate(-64 -22)"><path d="M78.043 36 78.043 104 146.013 104 146.013 102 80.043 102 80.043 36 78.043 36Z" stroke="#FFD96D" fill="#443D2F"/><path d="M131.046 96.02 142.046 96.02 142.046 88.02 131.046 88.02ZM133.046 90.02 140.046 90.02 140.046 94.02 133.046 94.02Z" stroke="#FFD96D" fill="#443D2F"/><path d="M123.045 85.017 135.045 85.017 135.045 77.017 123.045 77.017ZM125.045 79.017 133.045 79.017 133.045 83.017 125.045 83.017Z" stroke="#FFD96D" fill="#443D2F"/><path d="M130.046 66.012 108.046 66.012 108.046 74.012 130.046 74.012ZM128.046 72.012 110.046 72.012 110.046 68.012 128.046 68.012Z" stroke="#FFD96D" fill="#443D2F"/><path d="M98.045 63.011 133.045 63.011 133.045 55.011 98.045 55.011ZM100.045 57.011 131.045 57.011 131.045 61.011 100.045 61.011Z" stroke="#FFD96D" fill="#443D2F"/><path d="M86.044 52.008 107.044 52.008 107.044 44.008 86.044 44.008ZM88.044 46.008 105.044 46.008 105.044 50.008 88.044 50.008Z" stroke="#FFD96D" fill="#443D2F"/></g></svg>