<svg width="96" height="96" xmlns="http://www.w3.org/2000/svg" xmlns:xlink="http://www.w3.org/1999/xlink" xml:space="preserve" overflow="hidden"><defs><clipPath id="clip0"><rect x="16" y="282" width="96" height="96"/></clipPath></defs><g clip-path="url(#clip0)" transform="translate(-16 -282)"><path d="M39.6 343.717 37.1 351.217 42.8 356.917 50.3 354.417C52.2897 355.53 54.4045 356.403 56.6 357.017L60.1 364.017 68.1 364.017 71.6 357.017C73.7698 356.421 75.8537 355.547 77.8 354.417L85.3 356.917 91 351.217 88.5 343.717C89.6124 341.727 90.4852 339.612 91.1 337.417L98.1 333.917 98.1 325.917 91 322.517C90.403 320.347 89.5291 318.263 88.4 316.317L90.9 308.817 85.2 303.117 77.7 305.617C75.7103 304.504 73.5955 303.631 71.4 303.017L68 296 60 296 56.5 303C54.3302 303.596 52.2463 304.47 50.3 305.6L42.8 303.1 37.1 308.8 39.6 316.3C38.4876 318.29 37.6148 320.405 37 322.6L30 326 30 334 37 337.5C37.5956 339.676 38.4695 341.765 39.6 343.717ZM32 327.264 37.874 324.41 38.691 324.01 38.93 323.134C39.5041 321.091 40.3174 319.122 41.353 317.269L41.774 316.503 41.498 315.673 39.388 309.344 43.341 305.39 49.668 307.5 50.523 307.785 51.303 307.333C53.0998 306.29 55.0237 305.483 57.027 304.933L57.89 304.698 58.29 303.898 61.238 298 66.75 298 69.6 303.88 70 304.696 70.876 304.935C72.9187 305.51 74.8866 306.324 76.739 307.359L77.506 307.781 78.336 307.504 84.663 305.394 88.616 309.348 86.506 315.677 86.221 316.532 86.673 317.311C87.7165 319.108 88.5232 321.033 89.073 323.037L89.314 323.92 90.139 324.315 96.1 327.172 96.1 332.679 90.205 335.627 89.405 336.027 89.17 336.889C88.5957 338.932 87.7824 340.901 86.747 342.754L86.326 343.52 86.602 344.35 88.712 350.679 84.759 354.633 78.432 352.523 77.577 352.238 76.797 352.69C75 353.733 73.0757 354.54 71.072 355.09L70.21 355.325 69.81 356.125 66.862 362.025 61.338 362.025 58.391 356.125 57.991 355.325 57.128 355.09C55.0856 354.515 53.118 353.701 51.266 352.666L50.499 352.244 49.669 352.521 43.342 354.631 39.389 350.677 41.5 344.35 41.784 343.495 41.333 342.715C40.2892 340.918 39.4825 338.993 38.933 336.989L38.697 336.127 37.897 335.727 32 332.779Z" stroke="#FFD96D" fill="#443D2F"/><path d="M64 342.017C70.6274 342.017 76 336.644 76 330.017 76 323.39 70.6274 318.017 64 318.017 57.3726 318.017 52 323.39 52 330.017 52.0209 336.636 57.3812 341.996 64 342.017ZM64 320.01C69.5228 320.01 74 324.487 74 330.01 74 335.533 69.5228 340.01 64 340.01 58.4772 340.01 54 335.533 54 330.01 54.0072 324.49 58.4801 320.017 64 320.01Z" stroke="#FFD96D" fill="#443D2F"/></g></svg>