<svg width="96" height="96" xmlns="http://www.w3.org/2000/svg" xmlns:xlink="http://www.w3.org/1999/xlink" xml:space="preserve" overflow="hidden"><defs><clipPath id="clip0"><rect x="144" y="602" width="96" height="96"/></clipPath></defs><g clip-path="url(#clip0)" transform="translate(-144 -602)"><path d="M192 662C185.4 662 180 656.6 180 650 180 643.4 185.4 638 192 638 198.6 638 204 643.4 204 650 204 656.6 198.6 662 192 662ZM219 642.5C218.4 640.3 217.5 638.2 216.4 636.3L218.9 628.8 213.2 623.1 205.7 625.6C203.7 624.5 201.6 623.6 199.4 623L196 616 188 616 184.5 623C182.3 623.6 180.2 624.5 178.3 625.6L170.8 623.1 165.1 628.8 167.6 636.3C166.5 638.3 165.6 640.4 165 642.6L158 646 158 654 165 657.5C165.6 659.7 166.5 661.8 167.6 663.7L165.1 671.2 170.8 676.9 178.3 674.4C180.3 675.5 182.4 676.4 184.6 677L188.1 684 196.1 684 199.6 677C201.8 676.4 203.9 675.5 205.8 674.4L213.3 676.9 219 671.2 216.5 663.7C217.6 661.7 218.5 659.6 219.1 657.4L226.1 653.9 226.1 645.9 219 642.5Z" stroke="#FFD96D" stroke-width="1.33333" fill="#443D2F"/></g></svg>