<svg width="512" height="512" xmlns="http://www.w3.org/2000/svg" xmlns:xlink="http://www.w3.org/1999/xlink" xml:space="preserve" overflow="hidden"><defs><clipPath id="clip0"><rect x="384" y="104" width="512" height="512"/></clipPath></defs><g clip-path="url(#clip0)" transform="translate(-384 -104)"><path d="M879.9 270.6C883.1 279.3 880.4 289 873.5 295.2L830.2 334.6C831.3 342.9 831.9 351.4 831.9 360 831.9 368.6 831.3 377.1 830.2 385.4L873.5 424.8C880.4 431 883.1 440.7 879.9 449.4 875.5 461.3 870.2 472.7 864.1 483.7L859.4 491.8C852.8 502.8 845.4 513.2 837.3 523 831.4 530.2 821.6 532.6 812.8 529.8L757.1 512.1C743.7 522.4 728.9 531 713.1 537.5L700.6 594.6C698.6 603.7 691.6 610.9 682.4 612.4 668.6 614.7 654.4 615.9 639.9 615.9 625.4 615.9 611.2 614.7 597.4 612.4 588.2 610.9 581.2 603.7 579.2 594.6L566.7 537.5C550.9 531 536.1 522.4 522.7 512.1L467.1 529.9C458.3 532.7 448.5 530.2 442.6 523.1 434.5 513.3 427.1 502.9 420.5 491.9L415.8 483.8C409.7 472.8 404.4 461.4 400 449.5 396.8 440.8 399.5 431.1 406.4 424.9L449.7 385.5C448.6 377.1 448 368.6 448 360 448 351.4 448.6 342.9 449.7 334.6L406.4 295.2C399.5 289 396.8 279.3 400 270.6 404.4 258.7 409.7 247.3 415.8 236.3L420.5 228.2C427.1 217.2 434.5 206.8 442.6 197 448.5 189.8 458.3 187.4 467.1 190.2L522.8 207.9C536.2 197.6 551 189 566.8 182.5L579.3 125.4C581.3 116.3 588.3 109.1 597.5 107.6 611.3 105.2 625.5 104 640 104 654.5 104 668.7 105.2 682.5 107.5 691.7 109 698.7 116.2 700.7 125.3L713.2 182.4C729 188.9 743.8 197.5 757.2 207.8L812.9 190.1C821.7 187.3 831.5 189.8 837.4 196.9 845.5 206.7 852.9 217.1 859.5 228.1L864.2 236.2C870.3 247.2 875.6 258.6 880 270.5ZM640 440C684.2 440 720 404.2 720 360 720 315.8 684.2 280 640 280 595.8 280 560 315.8 560 360 560 404.2 595.8 440 640 440Z" fill="#FFD66D"/></g></svg>