<svg width="96" height="96" xmlns="http://www.w3.org/2000/svg" xmlns:xlink="http://www.w3.org/1999/xlink" xml:space="preserve" overflow="hidden"><defs><clipPath id="clip0"><rect x="242" y="606" width="96" height="96"/></clipPath></defs><g clip-path="url(#clip0)" transform="translate(-242 -606)"><path d="M304.93 656C301.55 653.12 297.16 651.77 293 650.47L293 626.29C297.039 626.674 300.814 628.469 303.66 631.36L308.46 626.76C304.352 622.581 298.848 620.064 293 619.69L293 611 287 611 287 620.07C284.945 620.47 282.963 621.178 281.12 622.17 273.54 626.3 269.67 636 272.78 644.17 275.19 650.47 281 653.28 287 655.39L287 681.57C282.35 681 278.49 678.33 275.29 675L270.49 679.59C272.776 682.183 275.501 684.353 278.54 686 281.197 687.264 284.066 688.02 287 688.23L287 697 293 697 293 688C299.88 686.85 306.2 682.62 308.92 676 311.64 669.38 310.65 660.89 304.93 656ZM282 645.73C276.5 641.09 277.84 632.11 283.67 628.39 284.703 627.727 285.824 627.212 287 626.86L287 648.55C285.19 647.891 283.5 646.939 282 645.73ZM300.09 677.55C298.138 679.458 295.676 680.76 293 681.3L293 657.41C297 658.78 301.59 660.52 303.22 664.78 304.85 669.04 303.21 674.37 300.09 677.55Z" stroke="#443D2F" fill="#FFD96D"/></g></svg>