<svg width="306" height="141" xmlns="http://www.w3.org/2000/svg" xmlns:xlink="http://www.w3.org/1999/xlink" xml:space="preserve" overflow="hidden"><defs><clipPath id="clip0"><rect x="1116" y="157" width="306" height="141"/></clipPath></defs><g clip-path="url(#clip0)" transform="translate(-1116 -157)"><path d="M1399.84 265.45 1389.51 275.8 1151.93 275.8 1138.16 262 1138.16 193 1151.93 179.2 1389.51 179.2 1399.84 189.55 1399.84 265.45ZM1117.5 158.5 1117.5 296.5 1420.5 296.5 1420.5 158.5 1117.5 158.5Z" stroke="#FFD96D" stroke-width="3.4375" stroke-miterlimit="8" fill="#443D2F" fill-rule="evenodd"/><path d="M1296.5 227.5C1296.5 246.278 1284.19 261.5 1269 261.5 1253.81 261.5 1241.5 246.278 1241.5 227.5 1241.5 208.722 1253.81 193.5 1269 193.5 1284.19 193.5 1296.5 208.722 1296.5 227.5Z" stroke="#FFD96D" stroke-width="3.4375" stroke-miterlimit="8" fill="#443D2F" fill-rule="evenodd"/><path d="M1193.5 227.5C1193.5 233.023 1188.8 237.5 1183 237.5 1177.2 237.5 1172.5 233.023 1172.5 227.5 1172.5 221.977 1177.2 217.5 1183 217.5 1188.8 217.5 1193.5 221.977 1193.5 227.5Z" stroke="#FFD96D" stroke-width="3.4375" stroke-miterlimit="8" fill="#443D2F" fill-rule="evenodd"/><path d="M1365.5 227.5C1365.5 233.023 1360.8 237.5 1355 237.5 1349.2 237.5 1344.5 233.023 1344.5 227.5 1344.5 221.977 1349.2 217.5 1355 217.5 1360.8 217.5 1365.5 221.977 1365.5 227.5Z" stroke="#FFD96D" stroke-width="3.4375" stroke-miterlimit="8" fill="#443D2F" fill-rule="evenodd"/></g></svg>