<svg xmlns="http://www.w3.org/2000/svg" xmlns:xlink="http://www.w3.org/1999/xlink" viewBox="59.75 37.8 586.5 583.8">
	<path fill="#FFD66D" transform="scale(1.33333 1.33333)" d="M264.479 464.97C265.563 465.172 265.611 465.167 266.315 466.008L263.974 466.053C264.066 465.588 264.2 465.35 264.479 464.97Z"/>
	<path fill="#FFDC95" transform="scale(1.33333 1.33333)" d="M148.267 51.7321C149.14 51.8586 149.712 52.0008 150.507 52.3111L151.188 52.453L148.799 53.3569C148.151 53.0467 147.713 52.6396 147.197 52.156L148.267 51.7321Z"/>
	<path fill="#FFD66D" transform="scale(1.33333 1.33333)" d="M219.45 461.517L223.61 462.35C223.282 462.688 223.01 463.004 222.751 463.398L219.069 462.643L219.499 462.214C219.499 461.981 219.473 461.749 219.45 461.517Z"/>
	<path fill="#FFEAB3" transform="scale(1.33333 1.33333)" d="M148.267 51.7321L156.763 49.0488L156.985 49.9045L151.188 52.453L150.507 52.3111C149.712 52.0008 149.14 51.8586 148.267 51.7321Z"/>
	<path fill="#F7F8EE" fill-opacity="0.98431373" transform="scale(1.33333 1.33333)" d="M124.713 63.2877C124.156 63.2745 123.643 63.2897 123.106 63.125C123.042 62.5657 122.972 62.3029 123.256 61.7842C123.638 61.087 124.738 59.8129 125.466 59.6425C126.442 60.472 127.322 60.1801 128.566 60.1567C128.492 60.7083 128.389 60.708 128.708 61.2021C126.877 61.3847 126.049 62.0871 124.713 63.2877Z"/>
	<path fill="#FFD66D" transform="scale(1.33333 1.33333)" d="M47.8106 239.355L47.8598 239.571C48.1124 240.738 48.1729 241.936 48.125 243.127L48.6335 243.352L48.8609 243.944L48.887 243.938L48.9459 268.542C48.0642 269.982 48.6239 272.827 48.4535 274.553C48.0499 272.055 48.1701 269.244 48.039 266.697L47.571 258.357L47.8106 239.355Z"/>
	<path fill="#FFC277" transform="scale(1.33333 1.33333)" d="M464.065 133.148C468.251 134.709 471.399 136.886 473.698 140.795L472.914 141.04L472.606 140.84C471.486 140.225 470.468 140.706 469.348 141.074C468.438 140.637 467.728 140.562 466.726 140.504C466.175 137.894 464.602 135.67 464.065 133.148Z"/>
	<path fill="#FFEAB3" transform="scale(1.33333 1.33333)" d="M128.566 60.1567C130.294 59.602 131.753 58.7232 133.369 57.9265C137.777 55.7539 142.343 53.1428 147.197 52.156C147.713 52.6396 148.151 53.0467 148.799 53.3569C145.397 54.4742 142.37 56.4534 139.106 57.9091C135.891 59.3429 132.114 60.2778 128.708 61.2021C128.389 60.708 128.492 60.7083 128.566 60.1567Z"/>
	<path fill="#FFC277" transform="scale(1.33333 1.33333)" d="M79.5047 367.635C83.7016 373.993 87.792 380.415 92.5516 386.375L97.0506 391.745L102.405 397.348C103.199 398.248 103.991 399.035 104.199 400.25L103.875 400.439C99.349 396.075 95.499 391.471 91.5535 386.61C86.8596 380.829 82.3025 374.835 78.5312 368.393L79.5047 367.635Z"/>
	<path fill="#FFC277" transform="scale(1.33333 1.33333)" d="M223.61 462.35C226.812 462.873 230.16 463.67 233.375 463.974C243.656 464.944 254.137 464.876 264.455 464.658L264.479 464.97C264.2 465.35 264.066 465.588 263.974 466.053C257.01 466.016 249.964 466.438 243 465.984C240.932 465.849 238.874 465.242 236.809 464.99C232.11 464.417 227.422 464.246 222.751 463.398C223.01 463.004 223.282 462.688 223.61 462.35Z"/>
	<path fill="#FFC277" fill-opacity="0.98823529" transform="scale(1.33333 1.33333)" d="M48.9459 268.542C49.575 279.571 50.7738 291.087 53.2211 301.868C54.8008 308.826 56.9695 315.537 58.9683 322.373L58.2229 323.545C56.5128 319.406 55.4428 314.688 54.3633 310.345L51.3472 298.224C50.9498 296.355 50.812 294.39 50.5066 292.5C49.5317 286.464 48.7086 280.68 48.4535 274.553C48.6239 272.827 48.0642 269.982 48.9459 268.542Z"/>
	<path fill="#FFDC95" transform="scale(1.33333 1.33333)" d="M58.9683 322.373C62.3947 331.868 65.6474 341.567 70.125 350.644L79.5047 367.635L78.5312 368.393L67.7852 348.375C65.6902 343.991 63.9919 339.287 62.2516 334.75C60.8338 331.054 59.3297 327.35 58.2229 323.545L58.9683 322.373Z"/>
	<path fill="#413F41" transform="scale(1.33333 1.33333)" d="M440.022 50.625C440.823 50.6736 441.548 50.9095 442.247 51.313C443.245 51.8893 443.911 53.0227 444.164 54.1269C444.471 55.4637 444.327 56.664 443.569 57.7915C442.727 59.0426 441.815 59.4536 440.375 59.7539C439.673 59.7408 438.96 59.6722 438.322 59.35C437.296 58.8318 436.471 57.7274 436.145 56.6344C435.793 55.452 435.941 53.959 436.532 52.875C437.278 51.5063 438.612 51.0395 440.022 50.625Z"/>
	<path fill="#FFDC95" transform="scale(1.33333 1.33333)" d="M116.552 69.3975C118.243 68.1055 118.995 66.6443 120.162 64.9022C120.954 63.719 121.917 62.6529 122.692 61.4603C123.559 60.1252 124.087 58.6147 125.096 57.3623C127.928 53.8463 131.721 51.4479 135.736 49.5065C137.452 48.6765 141.196 46.5618 143.023 47.1984C143.897 48.0257 143.913 48.1852 144.162 49.375L143.75 49.7969C143.105 49.6681 142.526 49.58 142.033 49.1085C141.624 48.7172 141.649 48.7791 141.125 48.6729L133.722 52.9626C132.112 53.9634 130.408 54.9182 128.953 56.1405C127.706 57.188 126.587 58.4619 125.466 59.6425C124.738 59.8129 123.638 61.087 123.256 61.7842C122.972 62.3029 123.042 62.5657 123.106 63.125C123.643 63.2897 124.156 63.2745 124.713 63.2877L117.16 69.6905L116.552 69.3975Z"/>
	<path fill="#A5932B" transform="scale(1.33333 1.33333)" d="M55.0228 152.978C54.4068 153.547 53.7879 154.097 53.0841 154.557C51.8043 155.392 50.4401 155.814 48.9004 155.4C47.626 155.057 46.3133 153.905 45.6842 152.769C44.8418 151.247 44.5258 148.629 45.1223 146.967C45.6308 145.55 46.7004 144.323 48.0596 143.664C50.0423 142.704 51.9582 143.038 53.9434 143.782C53.9821 144.699 53.9768 145.465 53.8725 146.375C53.6973 147.904 53.6988 149.615 54.1655 151.074C54.4086 151.834 54.5734 152.307 55.0228 152.978Z"/>
	<path fill="#FA953C" transform="scale(1.33333 1.33333)" d="M452.806 353.272C454.174 353.189 455.358 353.208 456.525 354.021C458.535 355.421 459.878 357.252 460.297 359.665C458.958 361.594 457.537 363.923 455.564 365.234C454.432 365.511 453.777 365.518 452.67 365.171C451.005 364.648 449.703 363.219 448.959 361.672C448.237 360.172 448.278 358.322 448.875 356.785C449.569 355 451.105 353.975 452.806 353.272Z"/>
	<path fill="#897B35" transform="scale(1.33333 1.33333)" d="M116.552 69.3975L117.16 69.6905L116.976 69.9065C114.988 72.1832 112.563 74.0939 110.322 76.1142L100.4 85.3796C85.6165 99.7706 72.2691 115.289 61.125 132.689C58.7984 136.322 56.3307 139.94 54.5831 143.898C55.8128 145.694 57.1303 147.314 56.7015 149.625C56.4747 150.848 55.7556 151.998 55.0228 152.978C54.5734 152.307 54.4086 151.834 54.1655 151.074C53.6988 149.615 53.6973 147.904 53.8725 146.375C53.9768 145.465 53.9821 144.699 53.9434 143.782C54.9834 140.603 57.0822 137.925 58.7724 135.079C64.7346 125.04 71.6513 115.909 79.0706 106.918C90.2632 93.3557 102.801 80.4073 116.552 69.3975Z"/>
	<path fill="#FFC277" transform="scale(1.33333 1.33333)" d="M219.069 462.643C210.347 461.406 201.727 458.97 193.378 456.228L185.5 453.782C173.805 449.6 162.492 443.951 151.67 437.894L142.348 432.088C137.308 428.89 132.258 425.609 127.549 421.934L118.446 414.356C117.017 413.173 113.228 410.583 112.742 408.875C112.869 408.818 112.985 408.702 113.125 408.704C113.599 408.713 114.92 410.026 115.275 410.337L120.222 414.554C127.055 420.378 134.336 425.77 141.825 430.716C149.694 435.914 158.143 440.284 166.634 444.357C177.31 449.478 188.232 454.182 199.696 457.305C206.188 459.074 212.881 460.076 219.45 461.517C219.473 461.749 219.499 461.981 219.499 462.214L219.069 462.643Z"/>
	<path fill="#FFDD75" transform="scale(1.33333 1.33333)" d="M448.164 146.055C448.302 144.831 448.416 143.578 448.74 142.387C449.284 140.383 451.636 135.33 453.528 134.479C457.414 132.733 459.832 131.697 464.065 133.148C464.602 135.67 466.175 137.894 466.726 140.504C462.418 141.362 458.506 142.527 454.358 143.981C452.815 144.522 451.189 144.931 449.706 145.625C449.219 145.854 448.687 145.942 448.164 146.055Z"/>
	<path fill="#FFDC95" transform="scale(1.33333 1.33333)" d="M460.732 433.015C461.938 432.908 463.337 433.211 464.421 433.771C466.367 434.775 467.729 436.586 468.358 438.656C468.921 440.509 468.555 442.885 467.59 444.559C466.718 446.072 464.767 446.966 463.153 447.375C461.732 447.699 460.684 447.844 459.298 447.308C457.691 446.687 455.901 445.063 455.228 443.493C454.427 441.626 454.568 439.247 455.385 437.398C456.429 435.037 458.416 433.871 460.732 433.015ZM460.968 434.031C459.151 434.783 457.05 435.951 456.251 437.875C455.623 439.39 455.58 441.183 456.234 442.69C456.897 444.219 458.137 445.75 459.74 446.324C460.694 446.665 461.578 446.677 462.578 446.622C464.525 446.095 465.675 445.634 466.717 443.802C467.547 442.345 467.861 440.919 467.356 439.286C467.136 438.575 466.756 437.967 466.375 437.334L466.21 437.052C465.6 436.054 463.888 434.544 462.75 434.251L460.968 434.031Z"/>
	<path fill="#FFDC95" transform="scale(1.33333 1.33333)" d="M459.385 225.956L459.531 225.921L459.501 225.499C459.392 224.932 459.44 224.937 459.625 224.377L459.866 224.608L460.298 224.392L462.334 235.74C463.143 240.555 463.641 245.701 463.866 250.577C464.462 263.464 463.68 276.475 461.468 289.184L458.272 303.514C456.416 311.222 454.363 318.883 451.662 326.344C444.314 346.64 433.22 365.744 420.157 382.886C417.251 386.699 414.173 390.72 410.983 394.282L402.075 403.38L395.197 410.163C388.792 415.931 381.72 421.193 374.728 426.221C367.038 431.752 359.262 436.984 350.888 441.446C337.59 448.532 323.617 454.024 309.198 458.33C301.561 460.61 293.556 462.985 285.625 463.979L276.5 464.995C273.04 465.448 269.833 466.036 266.315 466.008C265.611 465.167 265.563 465.172 264.479 464.97L264.455 464.658C266.012 464.561 267.581 464.722 269.149 464.625L283.504 463.077L290.297 462.311C294.338 461.663 298.506 460.275 302.458 459.168L309.881 457.035C311.284 456.661 312.754 456.42 314.125 455.943L321.875 452.974C326.567 451.229 331.307 449.656 335.879 447.604C360.035 436.765 382.505 421.344 401.31 402.742C403.915 400.165 406.651 397.647 409.105 394.927C414.741 388.678 419.797 381.809 424.714 374.996C436.403 358.8 445.949 340.82 452.347 321.873C454.307 316.068 455.877 310.016 457.356 304.072C461.712 286.572 463.844 268.385 462.887 250.332C462.565 244.264 461.748 238.225 460.692 232.246L459.385 225.956Z"/>
	<defs>
		<linearGradient id="gradient_0" gradientUnits="userSpaceOnUse" x1="178.01118" y1="56.103584" x2="163.82916" y2="45.147533">
			<stop offset="0" stop-color="#88ACAE" stop-opacity="0.3764706"/>
			<stop offset="1" stop-color="#88ACAD" stop-opacity="0.85490197"/>
		</linearGradient>
	</defs>
	<path fill="url(#gradient_0)" transform="scale(1.33333 1.33333)" d="M156.763 49.0488L157.875 49.2765C158.435 48.2562 158.768 47.134 159.33 46.1094C161.01 43.0435 163.418 41.0702 166.78 40.0818C168.815 39.4835 170.703 39.376 172.802 39.6141C173.309 39.6716 174.472 39.9869 174.927 39.8912C175.419 39.7877 176.275 39.182 176.798 38.9661C177.769 38.5647 178.667 37.9921 179.642 37.5846C184.028 35.7525 189.135 33.8934 193.751 32.7912L199.532 31.452C200.087 31.3673 200.533 31.2169 201.055 31.0273C201.456 30.8816 201.835 30.8524 202.251 30.7736C203.266 30.5814 204.368 30.3669 205.328 30C205.975 29.7529 206.658 29.7428 207.312 29.5087C207.837 29.3208 208.323 29.3493 208.875 29.1506L209.501 29.0129L209.86 28.9387C210.358 28.8508 210.166 28.8888 210.704 28.8852C211.22 28.8817 211.001 28.9339 211.368 28.751C211.891 28.4913 212.348 28.7603 212.869 28.5011C213.327 28.2734 213.872 28.3604 214.375 28.3775L214.623 28.625C214.235 28.8824 214.171 28.9034 213.749 28.9973L213.453 29.0675C213.085 29.1412 212.744 29.1322 212.373 29.125L212 29.3725L211.717 29.3592C211.312 29.3609 211.454 29.3395 211.132 29.4901C210.736 29.6748 210.517 29.5456 210.123 29.625C209.159 29.8187 208.042 30.0448 207.125 30.3725L206.499 30.4827C205.849 30.5851 205.294 30.7662 204.68 30.9899C204.362 31.1055 204.076 31.154 203.749 31.2284L201.374 31.853C200.995 31.9746 200.641 32.0212 200.251 32.081C199.862 32.1406 199.503 32.2648 199.125 32.3679C193.385 33.9349 187.693 35.5311 182.092 37.5633C179.854 38.375 177.844 39.6117 175.559 40.3123C177.872 41.9198 181.092 44.5111 181.593 47.4622C181.773 48.5228 181.768 49.7583 181.529 50.8039C181.331 51.6703 179.947 54.3238 180.103 54.9988C180.16 55.247 180.869 55.6211 180.985 55.875C181.24 56.4323 181.329 57.4925 181.461 58.1161L181.955 58.4321L180.375 58.9157C179.888 58.5125 180.075 58.7811 179.897 58.1536C179.764 57.6829 179.644 57.4768 179.25 57.1682C178.122 57.299 177.635 58.1915 176.818 58.9605C175.664 59.7186 173.821 61.062 172.511 61.3523C171.772 61.5904 171.054 61.7169 170.575 62.375C170.357 63.4507 170.196 63.6366 169.227 64.1782L168.816 64.3753C168.857 63.8409 168.897 64.0009 168.792 63.6062C168.674 63.1637 168.522 61.745 168.304 61.4662C168.175 61.3013 167.186 60.9037 166.948 60.782C165.54 60.0609 164.174 59.3789 162.923 58.3977L162.687 58.2089C160.725 56.5373 159.697 54.9888 158.655 52.6551C158.474 51.6325 158.367 50.6002 157.875 49.6735L156.985 49.9045L156.763 49.0488ZM158.655 52.6551C159.697 54.9888 160.725 56.5373 162.687 58.2089C163.013 57.9012 163.126 57.7195 163.262 57.2772C163.476 56.5807 163.244 55.8269 162.909 55.2146L162.669 54.7589C162.39 54.0233 162.265 53.2401 161.973 52.496C161.822 52.1127 161.32 51.2217 161.293 50.8493C161.269 50.5081 162.515 47.7506 162.728 47.2236C163.543 45.2149 165.773 43.0024 167.803 42.2138L168.17 42.0799C168.773 41.8329 169.267 41.7591 169.908 41.6625L169.181 41.1594L169.103 40.6797L168.635 40.5152C168.027 40.8746 167.818 40.935 167.133 40.8113L166.875 40.7585C166.449 41.2554 166.298 41.4776 165.656 41.6862C165.264 41.8136 165.105 41.8476 164.714 42.0648L162.748 43.0389C162.306 43.7241 162.131 44.783 162.079 45.5907L162.058 46L161.75 46.3725L161.596 46.6248L161.253 47.0721C160.888 47.7376 160.576 48.3721 159.991 48.8876L159.763 49.0739C159.213 49.6589 159.39 50.4943 159.373 51.25L159.125 51.5C159.103 52.0075 159.167 51.7938 158.881 52.2877L158.655 52.6551Z"/>
	<path fill="#88ABAF" fill-opacity="0.8509804" transform="scale(1.33333 1.33333)" d="M158.655 52.6551L158.881 52.2877C159.167 51.7938 159.103 52.0075 159.125 51.5L159.373 51.25C159.39 50.4943 159.213 49.6589 159.763 49.0739L159.991 48.8876C160.576 48.3721 160.888 47.7376 161.253 47.0721L161.596 46.6248L161.75 46.3725L162.058 46L162.079 45.5907C162.131 44.783 162.306 43.7241 162.748 43.0389L164.714 42.0648C165.105 41.8476 165.264 41.8136 165.656 41.6862C166.298 41.4776 166.449 41.2554 166.875 40.7585L167.133 40.8113C167.818 40.935 168.027 40.8746 168.635 40.5152L169.103 40.6797L169.181 41.1594L169.908 41.6625C169.267 41.7591 168.773 41.8329 168.17 42.0799L167.803 42.2138C165.773 43.0024 163.543 45.2149 162.728 47.2236C162.515 47.7506 161.269 50.5081 161.293 50.8493C161.32 51.2217 161.822 52.1127 161.973 52.496C162.265 53.2401 162.39 54.0233 162.669 54.7589L162.909 55.2146C163.244 55.8269 163.476 56.5807 163.262 57.2772C163.126 57.7195 163.013 57.9012 162.687 58.2089C160.725 56.5373 159.697 54.9888 158.655 52.6551Z"/>
	<path fill="#413F41" transform="scale(1.33333 1.33333)" d="M466.726 140.504C467.728 140.562 468.438 140.637 469.348 141.074C470.468 140.706 471.486 140.225 472.606 140.84L472.914 141.04L473.698 140.795C475.527 143.622 475.146 147.638 474.529 150.802C473.731 154.899 471.235 157.829 467.827 160.021L466.774 160.69C468.786 165.023 470.293 169.638 471.855 174.152C473.791 179.749 475.783 185.549 477.16 191.306L480.856 209.854L481.851 217.471L483.366 229.214L483.714 236.431C484.276 244.859 484.887 253.175 484.636 261.637L483.653 275.216C483.346 279.081 483.21 282.926 482.695 286.78C481.4 296.488 479.23 306.16 476.74 315.625C474.684 323.435 472.472 331.366 469.677 338.951L461.375 358.301L461.171 358C462.695 352.615 465.477 347.714 467.55 342.544C470.669 334.764 473.341 326.582 475.424 318.461C478.885 304.97 481.967 291.412 483.166 277.5L483.616 266.04L483.984 259.375C484.234 243.828 482.862 228.224 480.521 212.875C479.323 205.02 477.933 197.166 475.94 189.471L473.015 179.876L468.851 167.904C468.145 166.098 467.574 164.05 466.647 162.347C466.489 162.056 466.366 161.715 466.014 161.649C465.587 161.569 465.464 161.663 465.077 161.787C462.466 162.624 458.838 162.191 456.461 160.914C453.88 159.528 452.095 157.444 450.073 155.382C448.057 152.568 447.989 149.4 448.164 146.055C448.687 145.942 449.219 145.854 449.706 145.625C451.189 144.931 452.815 144.522 454.358 143.981C458.506 142.527 462.418 141.362 466.726 140.504Z"/>
	<path fill="#DB7B2D" transform="scale(1.33333 1.33333)" d="M456.956 151.092L457.413 151.76L457.125 152.25L457.508 152.073C458.048 151.835 458.465 151.866 459.044 151.893C457.205 152.683 455.18 153.608 453.166 153.793C454.178 152.255 455.321 151.792 456.956 151.092Z"/>
	<path fill="#DB7B2D" transform="scale(1.33333 1.33333)" d="M469.348 141.074C470.468 140.706 471.486 140.225 472.606 140.84L472.914 141.04C471.838 141.757 470.665 142.428 469.757 143.353C468.919 143.088 468.081 142.99 467.212 142.892C467.499 142.575 467.725 142.275 468.109 142.073C468.585 141.824 468.954 141.436 469.348 141.074Z"/>
	<path fill="#E88231" transform="scale(1.33333 1.33333)" d="M456.956 151.092L461.133 148.759L461.5 148.49C463.723 146.93 465.378 144.865 467.212 142.892C468.081 142.99 468.919 143.088 469.757 143.353C466.947 147.459 463.887 150.341 459.044 151.893C458.465 151.866 458.048 151.835 457.508 152.073L457.125 152.25L457.413 151.76L456.956 151.092Z"/>
	<path fill="#FA953C" transform="scale(1.33333 1.33333)" d="M466.726 140.504C467.728 140.562 468.438 140.637 469.348 141.074C468.954 141.436 468.585 141.824 468.109 142.073C467.725 142.275 467.499 142.575 467.212 142.892C465.378 144.865 463.723 146.93 461.5 148.49L461.133 148.759L456.956 151.092C455.321 151.792 454.178 152.255 453.166 153.793L450.073 155.382C448.057 152.568 447.989 149.4 448.164 146.055C448.687 145.942 449.219 145.854 449.706 145.625C451.189 144.931 452.815 144.522 454.358 143.981C458.506 142.527 462.418 141.362 466.726 140.504Z"/>
	<path fill="#FFC277" transform="scale(1.33333 1.33333)" d="M181.955 58.4321L196.914 53.0838C203.742 50.9782 210.627 49.4024 217.61 47.9341C223.156 46.7682 228.755 45.6398 234.393 45.0068C251.557 43.0801 268.829 44.0485 285.868 46.5798C296.217 48.1174 306.368 50.0794 316.417 53.0653C326.167 55.9623 335.965 59.9759 345.237 64.1575C358.241 70.023 370.557 77.7656 382.024 86.2023C399.649 99.1687 416.073 114.556 428.696 132.496C432.792 138.317 436.285 144.35 439.629 150.62C444.226 159.238 448.388 167.923 451.824 177.076C453.583 181.76 455.879 187.057 456.701 191.971C461.634 191.717 466.07 191.913 469.883 195.408C473.009 198.274 474.839 201.961 474.995 206.216C475.108 209.297 474.515 212.761 472.345 215.073C468.949 218.693 464.451 220.042 459.744 220.903L460.298 224.392L459.866 224.608L459.625 224.377C459.44 224.937 459.392 224.932 459.501 225.499L459.531 225.921L459.385 225.956C458.861 224.648 458.802 222.917 458.552 221.505C458.178 219.389 457.134 216.974 457.618 214.831L457.734 214.375C456.778 212.976 456.033 211.401 455.512 209.788C454.453 206.51 452.717 202.439 452.411 199.067C452.287 197.709 452.107 196.575 452.47 195.217C452.505 194.438 451.98 193.722 451.621 193.054L451.302 192.839C450.24 192.089 449.593 190.912 449.069 189.75C447.279 185.782 446.063 181.331 444.466 177.25C441.393 169.393 437.618 161.675 433.376 154.374C421.433 133.819 405.529 115.026 387.312 99.7442L376.822 91.7403C370.626 87.0824 364.494 82.6025 357.77 78.7108C351.758 75.2311 345.39 72.4125 339.086 69.5152C331.777 66.1565 324.442 62.8997 316.76 60.4549C306.794 57.283 296.256 55.548 285.956 53.875C272.351 51.665 258.556 50.8907 244.789 51.7293C241.291 51.9424 237.739 52.0896 234.266 52.5667L227.895 53.6932C222.329 54.5341 216.731 55.3159 211.251 56.6359C177.197 64.8388 144.756 81.9738 118.894 105.647C108.421 115.234 98.7713 126.362 90.2586 137.722C86.9201 142.177 83.9939 146.949 81.0836 151.687C76.6079 158.975 72.8712 166.276 69.2697 174.021C66.863 179.197 64.5073 184.389 62.6152 189.78C57.7819 203.549 54.6451 218.237 52.6786 232.69C52.2401 235.912 52.2345 239.155 51.8982 242.382C51.8076 243.251 51.9042 243.383 51.25 243.957C50.4293 244.009 50.0264 244.005 49.2742 243.676L48.887 243.938L48.8609 243.944L48.6335 243.352L48.125 243.127C48.1729 241.936 48.1124 240.738 47.8598 239.571L47.8106 239.355C47.5255 238.338 47.7616 236.421 47.7608 235.326C47.7537 225.948 49.4502 217.108 51.4602 208L56.5461 187.547C60.5782 174.045 67.2359 161.253 74.5268 149.25L82.4483 136.563C85.6032 131.927 89.1084 127.578 92.5998 123.196C103.808 109.127 116.064 96.2669 130.792 85.8158C139.715 79.4831 149.411 74.1691 159.127 69.1692L168.816 64.3753L169.227 64.1782C170.196 63.6366 170.357 63.4507 170.575 62.375C171.054 61.7169 171.772 61.5904 172.511 61.3523C173.821 61.062 175.664 59.7186 176.818 58.9605C177.635 58.1915 178.122 57.299 179.25 57.1682C179.644 57.4768 179.764 57.6829 179.897 58.1536C180.075 58.7811 179.888 58.5125 180.375 58.9157L181.955 58.4321Z"/>
	<path fill="#FFEAB6" transform="scale(1.33333 1.33333)" d="M451.621 193.054L452.375 193.288L452.871 194.328C453.382 195.556 454.952 197.664 454.625 198.95C454.205 198.979 453.85 199.145 453.527 198.827C452.515 197.83 452.499 196.542 452.47 195.217C452.505 194.438 451.98 193.722 451.621 193.054Z"/>
	<path fill="#F8F7F2" transform="scale(1.33333 1.33333)" d="M176.818 58.9605L177.232 58.8645C177.888 58.7021 178.4 58.4259 179 58.1225C179.503 58.6254 179.452 58.9536 180.091 59.375L170.875 63.6225L170.804 63.3055L170.948 63.1373C171.182 62.8197 171.262 62.494 171.375 62.1225L171.582 62.0343C171.942 61.8578 172.209 61.6107 172.511 61.3523C173.821 61.062 175.664 59.7186 176.818 58.9605Z"/>
	<path fill="#FFDD75" transform="scale(1.33333 1.33333)" d="M256.126 84.8602C260.688 84.3843 265.985 84.8255 270.539 85.378C279.278 86.4386 287.752 88.237 296.25 90.491C305.8 93.024 315.2 95.9966 324.25 100.004C328.907 102.066 333.338 104.647 337.76 107.166C341.747 109.438 345.846 111.701 349.641 114.276C365.896 125.309 380.005 139.188 392.131 154.602C400.499 165.239 407.168 177.307 412.595 189.669C419.322 204.993 424.152 220.904 426.276 237.544C428.019 251.197 427.829 265.84 426.178 279.487C424.368 294.436 420.668 310.255 414.913 324.178C412.591 329.797 409.675 335.188 406.688 340.473C395.144 360.893 379.919 379.031 361.361 393.448C356.507 397.219 351.343 400.587 346.114 403.81C334.198 411.155 321.269 417.484 307.912 421.75C301.043 423.944 294.069 425.493 287.01 426.907C280.423 428.227 273.7 429.476 267.002 430.037C257.554 430.828 247.81 430.534 238.413 429.343L217.875 425.66C209.235 423.69 200.38 421.152 192.156 417.845C183.216 414.251 174.864 409.742 166.697 404.659C144.699 390.966 125.173 372.404 111.363 350.382C100.928 333.742 93.1256 315.408 89.1612 296.136C87.3624 287.391 86.448 278.649 85.9538 269.746C85.5344 262.189 85.6836 254.934 86.1706 247.385C86.3793 244.15 86.4705 240.87 86.9419 237.662C87.458 234.15 88.3742 230.692 89.1686 227.235C85.7742 226.779 82.1653 227.009 78.7487 227.143C79.0768 224.451 79.753 221.797 80.2674 219.133C83.8807 200.426 90.7534 183.289 99.849 166.594C110.094 147.789 123.799 130.058 140.454 116.505C143.621 113.927 145.939 111.378 149.991 110.181C152.897 112.033 154.325 116.655 155.932 119.579C157.685 118.577 159.279 117.071 160.918 115.87C164.441 113.29 168.039 110.749 171.82 108.56C177.316 105.38 183.203 102.631 188.997 100.044C196.804 96.5586 204.892 93.297 213.15 91.0341C227.105 87.2103 241.696 85.3471 256.126 84.8602ZM197.315 109.586L186.179 114.804L179.073 118.783C178.434 119.15 177.345 119.594 176.836 120.102C170.719 123.426 165.05 127.66 159.628 132.002C156.502 134.109 153.573 136.8 150.754 139.308C144.928 144.49 139.988 149.951 135.01 155.95C124.465 168.654 115.862 182.486 109.546 197.766C103.384 212.673 98.8733 228.347 96.8178 244.363C95.6965 253.1 95.6256 261.938 96.0566 270.721C96.3817 277.343 96.8343 284.037 97.9369 290.577C99.7032 301.054 102.915 311.32 107.006 321.11C114.521 339.091 125.884 355.251 139.413 369.181C155.589 385.837 174.125 398.966 195.685 407.751C205.21 411.632 215.574 414.392 225.655 416.356C236.427 418.456 247.914 419.888 258.901 419.75C279.663 419.491 300.609 414.022 319.65 405.981C333.877 399.973 347.166 391.291 358.951 381.375C373.885 368.809 387.096 353.965 396.875 336.996C400.638 330.466 403.773 323.493 406.589 316.51C411.853 303.454 414.839 289.469 416.343 275.518C417.468 265.094 417.727 254.198 416.728 243.75C415.951 235.638 414.335 227.662 412.419 219.753C410.509 211.866 408.133 204.016 404.913 196.559C396.925 178.06 385.141 161.578 371.091 147.204C354.99 130.731 336.526 117.44 315.033 108.925C301.915 103.728 287.577 100.334 273.582 98.7229C265.021 97.7374 256.721 97.2731 248.125 98.1025L243.523 98.575C242.775 98.6572 241.81 98.651 241.135 98.9897L240.92 99.125C237.74 98.9347 234.229 99.5818 231.096 100.08C230.046 100.247 228.755 100.297 227.777 100.679C227.335 100.853 227.646 100.778 227.078 100.883L226.735 100.939L226.5 101.166L226.125 100.877C225.762 101.035 225.466 101.181 225.063 101.203C223.258 101.301 221.412 101.824 219.648 102.208C212.642 103.734 205.616 106.068 199 108.826L197.315 109.586Z"/>
	<path fill="#FFEAB3" transform="scale(1.33333 1.33333)" d="M197.315 109.586L199 108.826C205.616 106.068 212.642 103.734 219.648 102.208C221.412 101.824 223.258 101.301 225.063 101.203C225.466 101.181 225.762 101.035 226.125 100.877L226.5 101.166L226.735 100.939L227.078 100.883C227.646 100.778 227.335 100.853 227.777 100.679C228.755 100.297 230.046 100.247 231.096 100.08C234.229 99.5818 237.74 98.9347 240.92 99.125L241.135 98.9897C241.81 98.651 242.775 98.6572 243.523 98.575L248.125 98.1025C256.721 97.2731 265.021 97.7374 273.582 98.7229C287.577 100.334 301.915 103.728 315.033 108.925C336.526 117.44 354.99 130.731 371.091 147.204C385.141 161.578 396.925 178.06 404.913 196.559C408.133 204.016 410.509 211.866 412.419 219.753C414.335 227.662 415.951 235.638 416.728 243.75C417.727 254.198 417.468 265.094 416.343 275.518C414.839 289.469 411.853 303.454 406.589 316.51C403.773 323.493 400.638 330.466 396.875 336.996C387.096 353.965 373.885 368.809 358.951 381.375C347.166 391.291 333.877 399.973 319.65 405.981C300.609 414.022 279.663 419.491 258.901 419.75C247.914 419.888 236.427 418.456 225.655 416.356C215.574 414.392 205.21 411.632 195.685 407.751C174.125 398.966 155.589 385.837 139.413 369.181C125.884 355.251 114.521 339.091 107.006 321.11C102.915 311.32 99.7032 301.054 97.9369 290.577C96.8343 284.037 96.3817 277.343 96.0566 270.721C95.6256 261.938 95.6965 253.1 96.8178 244.363C98.8733 228.347 103.384 212.673 109.546 197.766C115.862 182.486 124.465 168.654 135.01 155.95C139.988 149.951 144.928 144.49 150.754 139.308C153.573 136.8 156.502 134.109 159.628 132.002C165.05 127.66 170.719 123.426 176.836 120.102C177.345 119.594 178.434 119.15 179.073 118.783L186.179 114.804L197.315 109.586ZM247.67 110.753C233.734 112.164 219.768 114.172 206.675 119.406C201.648 121.416 196.82 124.006 192.032 126.519C185.706 129.84 178.886 133.722 173.301 138.185C169.322 140.954 165.191 143.909 161.561 147.125C158.138 150.158 154.908 153.576 151.72 156.858C150.593 158.019 149.396 159.144 148.347 160.375C147.737 161.09 145.756 164.292 144.946 164.535C140.885 169.294 137.235 174.464 133.801 179.691C116.388 206.201 106.239 238.412 108.776 270.305C110.098 286.928 113.686 303.365 120.248 318.75C122.829 324.802 126.182 330.744 129.68 336.307C137.85 349.302 147.653 361.222 159.366 371.185C166.885 377.58 174.958 383.031 183.534 387.902C207.888 401.045 236.903 407.786 264.577 405.912L264.6 405.857L274.682 404.93C284.537 403.734 294.589 401.385 303.853 397.818L304.266 397.742C307.317 396.883 310.346 395.356 313.303 394.19C338.106 384.409 360.684 366.551 376.533 345.154C379.782 340.768 382.765 336.184 385.458 331.437L389.576 323.765L389.877 324.125L390.205 323.919C390.607 323.672 390.436 323.743 390.772 323.641L395.679 312.335C397.889 306.563 399.587 300.68 401.212 294.727L400.334 293.957C401.949 285.904 403.413 277.996 403.993 269.779C404.458 263.197 404.216 256.441 404.059 249.847L403.884 246.474C403.346 240.225 402.363 233.962 401.223 227.799C400.03 221.356 398.588 214.849 396.122 208.763C393.373 201.98 389.731 195.775 386.451 189.268L379.02 177.25C375.394 171.932 371.618 166.715 367.371 161.871C365.335 159.548 363.06 157.397 360.886 155.201C342.395 136.52 319.36 122.109 293.875 115.203C289.095 113.908 284.287 113.022 279.429 112.08C276.468 111.867 273.576 111.195 270.632 111.026L247.67 110.753ZM176.836 120.102C170.719 123.426 165.05 127.66 159.628 132.002C158.849 133.259 157.706 134.027 157.146 135.417L166.053 129.125C167.015 128.456 167.879 127.513 168.906 126.972C169.825 126.489 170.595 125.686 171.499 125.244C172.7 124.656 173.507 123.786 174.641 123.175L176.723 121.975L176.375 121.499C176.382 120.947 176.605 120.591 176.836 120.102ZM186.179 114.804L179.073 118.783C178.434 119.15 177.345 119.594 176.836 120.102C176.605 120.591 176.382 120.947 176.375 121.499L176.723 121.975L188.33 115.601C187.911 115.272 188.083 115.331 187.647 115.22L186.179 114.804ZM186.179 114.804L187.647 115.22C188.083 115.331 187.911 115.272 188.33 115.601L197.608 111.375L197.25 111.189L197 111.375L196.5 111.439L196.25 111.625L195.75 111.689C195.495 111.879 195.196 112.06 194.877 112.125L194.625 112.127L194.375 112.5L193.812 111.876C194.134 111.533 194.247 111.504 194.717 111.378C195.149 111.263 195.258 111.217 195.648 110.938C196.277 110.489 196.943 110.217 197.651 109.916L197.315 109.586L186.179 114.804Z"/>
	<path fill="#FFDC95" fill-opacity="0.90980393" transform="scale(1.33333 1.33333)" d="M186.179 114.804L197.315 109.586L197.651 109.916C196.943 110.217 196.277 110.489 195.648 110.938C195.258 111.217 195.149 111.263 194.717 111.378C194.247 111.504 194.134 111.533 193.812 111.876L194.375 112.5L194.625 112.127L194.877 112.125C195.196 112.06 195.495 111.879 195.75 111.689L196.25 111.625L196.5 111.439L197 111.375L197.25 111.189L197.608 111.375L188.33 115.601C187.911 115.272 188.083 115.331 187.647 115.22L186.179 114.804Z"/>
	<path fill="#FFEAB6" fill-opacity="0.89411765" transform="scale(1.33333 1.33333)" d="M186.179 114.804L187.647 115.22C188.083 115.331 187.911 115.272 188.33 115.601L176.723 121.975L176.375 121.499C176.382 120.947 176.605 120.591 176.836 120.102C177.345 119.594 178.434 119.15 179.073 118.783L186.179 114.804Z"/>
	<path fill="#FFDC95" transform="scale(1.33333 1.33333)" d="M246.311 110.053C254.006 109.878 261.699 109.723 269.375 110.397C272.749 110.693 276.237 110.952 279.541 111.718L279.429 112.08C276.468 111.867 273.576 111.195 270.632 111.026L247.67 110.753L247.606 110.5C247.203 110.278 246.751 110.181 246.311 110.053Z"/>
	<path fill="#FFDC95" fill-opacity="0.90980393" transform="scale(1.33333 1.33333)" d="M176.836 120.102C176.605 120.591 176.382 120.947 176.375 121.499L176.723 121.975L174.641 123.175C173.507 123.786 172.7 124.656 171.499 125.244C170.595 125.686 169.825 126.489 168.906 126.972C167.879 127.513 167.015 128.456 166.053 129.125L157.146 135.417C157.706 134.027 158.849 133.259 159.628 132.002C165.05 127.66 170.719 123.426 176.836 120.102Z"/>
	<path fill="#FFDD75" transform="scale(1.33333 1.33333)" d="M264.577 405.912L264.6 405.857L274.682 404.93C284.537 403.734 294.589 401.385 303.853 397.818L304.155 398.397C300.794 399.627 297.445 401.01 294 401.984C285.592 404.362 276.726 405.638 268.045 406.518C266.835 406.641 264.183 407.165 263.092 406.764L263.114 406.702C263.838 406.662 264.423 406.566 265.123 406.375L264.577 405.912Z"/>
	<path fill="#FFDC95" transform="scale(1.33333 1.33333)" d="M144.167 164.05C145.662 161.791 147.636 159.788 149.446 157.781C155.353 151.228 161.624 145.335 168.843 140.248C170.065 139.386 171.226 138.331 172.561 137.658L173.301 138.185C169.322 140.954 165.191 143.909 161.561 147.125C158.138 150.158 154.908 153.576 151.72 156.858C150.593 158.019 149.396 159.144 148.347 160.375C147.737 161.09 145.756 164.292 144.946 164.535L144.719 164.061L144.167 164.05Z"/>
	<path fill="#FFDC95" transform="scale(1.33333 1.33333)" d="M403.884 246.474C404.026 245.496 403.915 245.163 404.674 244.491L405.044 251.001C405.467 253.35 405.284 256.011 405.291 258.399C405.33 270.745 404.079 282.705 401.212 294.727L400.334 293.957C401.949 285.904 403.413 277.996 403.993 269.779C404.458 263.197 404.216 256.441 404.059 249.847L403.884 246.474Z"/>
	<path fill="#FFD66D" transform="scale(1.33333 1.33333)" d="M403.884 246.474C404.026 245.496 403.915 245.163 404.674 244.491L405.044 251.001L404.755 251.109L404.75 248.625L404.553 248.678L404.456 251.303L404.059 249.847L403.884 246.474Z"/>
	<path fill="#FFD66D" transform="scale(1.33333 1.33333)" d="M172.561 137.658C179.711 131.904 188.034 127.37 196.251 123.362L202.027 120.421C205.766 118.737 209.849 117.242 213.75 115.982C219.919 113.99 226.321 112.73 232.701 111.651C237.174 110.895 241.768 110.131 246.311 110.053C246.751 110.181 247.203 110.278 247.606 110.5L247.67 110.753C233.734 112.164 219.768 114.172 206.675 119.406C201.648 121.416 196.82 124.006 192.032 126.519C185.706 129.84 178.886 133.722 173.301 138.185L172.561 137.658Z"/>
	<path fill="#FFD66D" transform="scale(1.33333 1.33333)" d="M183.534 387.902C207.888 401.045 236.903 407.786 264.577 405.912L265.123 406.375C264.423 406.566 263.838 406.662 263.114 406.702L263.092 406.764C259.559 407.197 255.774 407.035 252.221 407.009C228.326 406.835 203.634 400.112 182.828 388.35L183.534 387.902Z"/>
	<path fill="#FFDC95" transform="scale(1.33333 1.33333)" d="M303.853 397.818L304.266 397.742C307.317 396.883 310.346 395.356 313.303 394.19C338.106 384.409 360.684 366.551 376.533 345.154C379.782 340.768 382.765 336.184 385.458 331.437L389.576 323.765L389.877 324.125L390.205 323.919C390.607 323.672 390.436 323.743 390.772 323.641C384.583 336.26 376.668 348.184 367.061 358.477C357.854 368.342 346.985 376.844 335.55 383.959C329.293 387.852 322.321 391.918 315.351 394.337L304.155 398.397L303.853 397.818Z"/>
	<path fill="#FFDD75" transform="scale(1.33333 1.33333)" d="M279.541 111.718L280.035 111.822C286.226 113.09 292.397 113.885 298.485 115.734C308.192 118.682 317.095 122.711 325.914 127.677C334.405 132.458 342.66 137.884 350.192 144.093C362.091 153.901 372.413 165.921 380.987 178.687C384.677 184.181 387.902 189.913 391.002 195.75C393.034 199.577 395.096 203.4 396.698 207.434C401.294 219.007 403.613 232.147 404.674 244.491C403.915 245.163 404.026 245.496 403.884 246.474C403.346 240.225 402.363 233.962 401.223 227.799C400.03 221.356 398.588 214.849 396.122 208.763C393.373 201.98 389.731 195.775 386.451 189.268L379.02 177.25C375.394 171.932 371.618 166.715 367.371 161.871C365.335 159.548 363.06 157.397 360.886 155.201C342.395 136.52 319.36 122.109 293.875 115.203C289.095 113.908 284.287 113.022 279.429 112.08L279.541 111.718Z"/>
	<path fill="#FFDD75" transform="scale(1.33333 1.33333)" d="M144.167 164.05L144.719 164.061L144.946 164.535C140.885 169.294 137.235 174.464 133.801 179.691C116.388 206.201 106.239 238.412 108.776 270.305C110.098 286.928 113.686 303.365 120.248 318.75C122.829 324.802 126.182 330.744 129.68 336.307C137.85 349.302 147.653 361.222 159.366 371.185C166.885 377.58 174.958 383.031 183.534 387.902L182.828 388.35C173.335 383.457 164.552 376.759 156.477 369.813C154.741 368.319 153.137 366.581 151.507 364.969C146.475 359.998 142.01 354.909 137.677 349.322C129.955 339.365 123.308 328.441 118.434 316.799C112.093 301.654 108.453 284.699 107.319 268.346C106.691 259.299 107.497 250.116 108.908 241.172C109.981 234.364 111.27 227.71 113.177 221.078C117.47 206.152 124.471 192.037 133.014 179.106C136.472 173.873 140.064 168.801 144.167 164.05Z"/>
	<path fill="#FFEAB3" transform="scale(1.33333 1.33333)" d="M247.67 110.753L270.632 111.026C273.576 111.195 276.468 111.867 279.429 112.08C284.287 113.022 289.095 113.908 293.875 115.203C319.36 122.109 342.395 136.52 360.886 155.201C363.06 157.397 365.335 159.548 367.371 161.871C371.618 166.715 375.394 171.932 379.02 177.25L386.451 189.268C389.731 195.775 393.373 201.98 396.122 208.763C398.588 214.849 400.03 221.356 401.223 227.799C402.363 233.962 403.346 240.225 403.884 246.474L404.059 249.847C404.216 256.441 404.458 263.197 403.993 269.779C403.413 277.996 401.949 285.904 400.334 293.957L401.212 294.727C399.587 300.68 397.889 306.563 395.679 312.335L390.772 323.641C390.436 323.743 390.607 323.672 390.205 323.919L389.877 324.125L389.576 323.765L385.458 331.437C382.765 336.184 379.782 340.768 376.533 345.154C360.684 366.551 338.106 384.409 313.303 394.19C310.346 395.356 307.317 396.883 304.266 397.742L303.853 397.818C294.589 401.385 284.537 403.734 274.682 404.93L264.6 405.857L264.577 405.912C236.903 407.786 207.888 401.045 183.534 387.902C174.958 383.031 166.885 377.58 159.366 371.185C147.653 361.222 137.85 349.302 129.68 336.307C126.182 330.744 122.829 324.802 120.248 318.75C113.686 303.365 110.098 286.928 108.776 270.305C106.239 238.412 116.388 206.201 133.801 179.691C137.235 174.464 140.885 169.294 144.946 164.535C145.756 164.292 147.737 161.09 148.347 160.375C149.396 159.144 150.593 158.019 151.72 156.858C154.908 153.576 158.138 150.158 161.561 147.125C165.191 143.909 169.322 140.954 173.301 138.185C178.886 133.722 185.706 129.84 192.032 126.519C196.82 124.006 201.648 121.416 206.675 119.406C219.768 114.172 233.734 112.164 247.67 110.753ZM301.557 157.217C299.49 158.264 296.334 157.86 294.03 158.141C291.38 158.463 288.606 159.022 286.019 159.655C278.642 161.461 272.65 165.273 266.136 168.946C260.366 172.639 254.401 177.044 249.57 181.911C246.609 184.621 243.62 187.448 241.032 190.523C226.948 207.262 218.084 229.917 217.027 251.768C216.606 260.452 217.034 269.261 218.886 277.766C222.145 292.738 230.291 307.909 240.662 319.153C249.785 329.044 262.162 336.93 274.578 341.928C279.714 343.995 284.893 345.704 290.487 345.898C293.898 346.017 297.183 345.645 300.557 345.264C311.417 344.039 322.707 341.135 332.663 336.622C334.722 335.689 336.709 334.618 338.672 333.495C340.061 332.701 341.587 331.499 343.182 331.246C347.72 325.382 352.249 319.303 355.733 312.744C362.964 299.135 368.062 282.753 368.934 267.342C369.72 253.472 367.713 239.543 363.616 226.308C361.943 220.906 359.557 215.68 356.966 210.662C350.057 197.282 340.597 184.976 329.079 175.223C324.211 171.101 318.862 167.821 313.488 164.43C309.514 161.922 305.739 159.402 301.557 157.217ZM226.745 153.579C224.893 154.992 222.766 156.036 220.864 157.455C220.443 157.769 219.153 158.97 218.709 159.055L218.454 158.382L217.875 158.331L216.625 158.921L216.53 158.224C215.803 157.973 215.696 158.047 214.942 158.254C213.941 158.486 213.621 158.75 212.697 158.244L212.437 158.386C211.787 158.641 210.821 158.899 210.284 159.319C209.059 159.865 207.777 160.357 206.656 161.098C204.983 161.85 203.223 162.626 201.683 163.624C193.409 167.802 186.541 173.479 179.411 179.309C178.932 179.703 178.166 180.527 177.503 180.409L176.97 180.221C175.838 179.815 174.558 180.31 173.517 180.815C172.285 181.413 171.059 182.406 170.11 183.395C168.71 183.943 167.479 185.717 165.982 186.474C165.12 186.909 164.347 187.512 163.5 187.974C161.371 189.136 159.039 190.165 157.766 192.366C157.299 193.175 156.625 193.585 155.967 194.217C155.059 195.087 154.406 196.045 153.402 196.861L153.163 196.648C152.775 197.086 152.474 197.51 152.155 198C149.32 202.362 147.089 206.944 144.921 211.656C143.423 214.88 142.103 218.156 140.937 221.513C140.447 222.924 139.776 224.536 139.585 226.008C137.868 232.412 136.398 238.488 135.441 245.062C135.131 247.191 134.672 249.297 134.757 251.456C134.278 257.169 134.398 263.058 134.538 268.788C134.606 271.557 134.45 275.23 135.438 277.822C135.626 279.398 135.733 281.29 136.268 282.78C136.915 287.633 138.274 292.465 139.742 297.125C140.497 299.521 141.171 302.078 142.128 304.396L142.32 303.321L144.71 306.991C144.922 307.322 144.816 307.205 144.888 307.627C145.001 308.285 145.323 308.714 145.662 309.273C146.072 309.949 145.689 309.292 146.059 310.067C146.685 311.375 148.194 312.743 149.229 313.759L149.451 313.779L150.128 313.384L150.623 313.625L151.375 313.877L151.75 314.125L151.938 313.812L151.75 313.375L152.123 313.375L152.25 313.125C152.672 313.125 152.535 313.097 152.897 313.189L153.125 313.254C153.413 312.929 153.675 312.642 153.836 312.233C154.135 311.472 154.202 310.593 153.819 309.853C153.643 309.513 153.509 309.244 153.385 308.879L153.846 308.243C154.446 309.522 155.2 310.865 155.621 312.207C158.644 317.563 161.58 322.861 165.28 327.792C179.474 346.711 201.366 361.915 224.123 368.272C232.333 370.566 240.819 372.4 249.347 372.936C257.833 373.469 266.718 372.84 275.062 371.25C277.471 370.792 280.528 370.603 282.781 369.68C286.423 368.939 289.877 367.527 293.356 366.257C306.306 361.53 318.992 354.833 329.476 345.78C331.76 343.807 333.828 341.531 335.926 339.365C338.459 336.749 340.999 334.169 343.182 331.246C341.587 331.499 340.061 332.701 338.672 333.495C336.709 334.618 334.722 335.689 332.663 336.622C322.707 341.135 311.417 344.039 300.557 345.264C297.183 345.645 293.898 346.017 290.487 345.898C284.893 345.704 279.714 343.995 274.578 341.928C262.162 336.93 249.785 329.044 240.662 319.153C230.291 307.909 222.145 292.738 218.886 277.766C217.034 269.261 216.606 260.452 217.027 251.768C218.084 229.917 226.948 207.262 241.032 190.523C243.62 187.448 246.609 184.621 249.57 181.911C254.401 177.044 260.366 172.639 266.136 168.946C272.65 165.273 278.642 161.461 286.019 159.655C288.606 159.022 291.38 158.463 294.03 158.141C296.334 157.86 299.49 158.264 301.557 157.217C299.263 156.095 296.829 155.34 294.413 154.525C287.442 152.175 280.139 150.578 272.875 149.426C261.24 147.58 249.365 148.632 237.895 150.954C234.127 151.716 230.425 152.442 226.745 153.579ZM153.163 196.648L153.402 196.861C154.406 196.045 155.059 195.087 155.967 194.217C156.625 193.585 157.299 193.175 157.766 192.366C159.039 190.165 161.371 189.136 163.5 187.974C164.347 187.512 165.12 186.909 165.982 186.474C167.479 185.717 168.71 183.943 170.11 183.395C171.059 182.406 172.285 181.413 173.517 180.815C174.558 180.31 175.838 179.815 176.97 180.221L177.503 180.409C178.166 180.527 178.932 179.703 179.411 179.309C186.541 173.479 193.409 167.802 201.683 163.624C203.223 162.626 204.983 161.85 206.656 161.098C207.777 160.357 209.059 159.865 210.284 159.319C210.821 158.899 211.787 158.641 212.437 158.386L212.697 158.244C213.621 158.75 213.941 158.486 214.942 158.254C215.696 158.047 215.803 157.973 216.53 158.224L216.625 158.921L217.875 158.331L218.454 158.382L218.709 159.055C219.153 158.97 220.443 157.769 220.864 157.455C222.766 156.036 224.893 154.992 226.745 153.579C230.425 152.442 234.127 151.716 237.895 150.954C249.365 148.632 261.24 147.58 272.875 149.426C280.139 150.578 287.442 152.175 294.413 154.525C296.829 155.34 299.263 156.095 301.557 157.217C305.739 159.402 309.514 161.922 313.488 164.43C318.862 167.821 324.211 171.101 329.079 175.223C340.597 184.976 350.057 197.282 356.966 210.662C359.557 215.68 361.943 220.906 363.616 226.308C367.713 239.543 369.72 253.472 368.934 267.342C368.062 282.753 362.964 299.135 355.733 312.744C352.249 319.303 347.72 325.382 343.182 331.246C340.999 334.169 338.459 336.749 335.926 339.365C333.828 341.531 331.76 343.807 329.476 345.78C318.992 354.833 306.306 361.53 293.356 366.257C289.877 367.527 286.423 368.939 282.781 369.68C280.528 370.603 277.471 370.792 275.062 371.25C266.718 372.84 257.833 373.469 249.347 372.936C240.819 372.4 232.333 370.566 224.123 368.272C201.366 361.915 179.474 346.711 165.28 327.792C161.58 322.861 158.644 317.563 155.621 312.207C155.2 310.865 154.446 309.522 153.846 308.243L153.385 308.879C153.509 309.244 153.643 309.513 153.819 309.853C154.202 310.593 154.135 311.472 153.836 312.233C153.675 312.642 153.413 312.929 153.125 313.254L152.897 313.189C152.535 313.097 152.672 313.125 152.25 313.125L152.123 313.375L151.75 313.375L151.938 313.812L151.75 314.125L151.375 313.877L150.623 313.625L150.128 313.384L149.451 313.779L149.229 313.759C148.194 312.743 146.685 311.375 146.059 310.067C145.689 309.292 146.072 309.949 145.662 309.273C145.323 308.714 145.001 308.285 144.888 307.627C144.816 307.205 144.922 307.322 144.71 306.991L142.32 303.321L142.128 304.396C145.121 312.392 148.753 320.712 153.312 327.949C161.826 341.465 174.564 353.439 187.686 362.422C213.21 379.895 246.825 387.772 277.313 381.956C302.285 377.192 327.385 363.935 345.099 345.685C349.978 340.659 354.489 334.645 358.375 328.826C362.086 323.27 365.12 317.221 367.775 311.097C378.074 287.344 381.06 260.444 375.826 235.043C369.389 203.8 350.041 175.481 323.375 158.034C307.092 147.38 288.894 140.747 269.625 138.198C265.269 137.621 260.983 137.096 256.579 137.088C252.968 137.081 249.514 137.644 245.936 137.947C241.677 138.308 237.464 138.507 233.272 139.418C209.684 144.544 189.2 156.156 172.053 173.06C167.695 177.356 163.341 181.988 159.652 186.875C157.3 189.992 155.264 193.359 153.163 196.648Z"/>
	<path fill="#FFD66D" transform="scale(1.33333 1.33333)" d="M400.334 293.957L401.212 294.727C399.587 300.68 397.889 306.563 395.679 312.335L390.772 323.641C390.436 323.743 390.607 323.672 390.205 323.919L389.877 324.125L389.576 323.765L393.673 314.353C396.376 307.713 398.556 300.898 400.334 293.957Z"/>
	<path fill="#FA953C" transform="scale(1.33333 1.33333)" d="M387.751 204.017C388.952 203.966 389.891 203.999 391 204.501C392.76 205.298 394.497 207.319 395.109 209.182C395.543 210.502 395.371 212.47 394.709 213.711C393.82 215.377 392.228 216.245 390.499 216.766C389.573 216.786 388.475 216.89 387.579 216.638C385.877 216.159 384.502 215.173 383.647 213.625C382.823 212.132 382.719 210.188 383.21 208.571C383.948 206.145 385.614 205.098 387.751 204.017Z"/>
	<path fill="#434042" fill-opacity="0.49019608" transform="scale(1.33333 1.33333)" d="M212.697 158.244C214.73 157.159 217.491 156.326 219.75 155.865L220.435 156.314L220.75 156.555C222.682 155.08 224.355 154.166 226.745 153.579C224.893 154.992 222.766 156.036 220.864 157.455C220.443 157.769 219.153 158.97 218.709 159.055L218.454 158.382L217.875 158.331L216.625 158.921L216.53 158.224C215.803 157.973 215.696 158.047 214.942 158.254C213.941 158.486 213.621 158.75 212.697 158.244Z"/>
	<defs>
		<linearGradient id="gradient_1" gradientUnits="userSpaceOnUse" x1="153.96262" y1="314.80643" x2="153.03738" y2="314.19357">
			<stop offset="0" stop-color="#F8F8F1" stop-opacity="0.13725491"/>
			<stop offset="1" stop-color="#F8F8F1" stop-opacity="0.17647059"/>
		</linearGradient>
	</defs>
	<path fill="url(#gradient_1)" transform="scale(1.33333 1.33333)" d="M149.451 313.779L150.128 313.384L150.623 313.625L151.375 313.877L151.75 314.125L151.938 313.812L151.75 313.375L152.123 313.375L152.25 313.125C152.672 313.125 152.535 313.097 152.897 313.189L153.125 313.254C153.413 312.929 153.675 312.642 153.836 312.233C154.135 311.472 154.202 310.593 153.819 309.853C153.643 309.513 153.509 309.244 153.385 308.879L153.846 308.243C154.446 309.522 155.2 310.865 155.621 312.207L155.208 312.878C155.395 313.518 155.571 314.066 155.883 314.66C155.647 315.247 155.372 315.796 155.375 316.44L155.082 316.498L154.875 316.123L154.416 316.231L152.09 316.622C151.015 315.781 150.204 314.923 149.451 313.779Z"/>
	<path fill="#FFC277" transform="scale(1.33333 1.33333)" d="M226.745 153.579C230.425 152.442 234.127 151.716 237.895 150.954C249.365 148.632 261.24 147.58 272.875 149.426C280.139 150.578 287.442 152.175 294.413 154.525C296.829 155.34 299.263 156.095 301.557 157.217C299.49 158.264 296.334 157.86 294.03 158.141C291.38 158.463 288.606 159.022 286.019 159.655C278.642 161.461 272.65 165.273 266.136 168.946C260.366 172.639 254.401 177.044 249.57 181.911C246.609 184.621 243.62 187.448 241.032 190.523C226.948 207.262 218.084 229.917 217.027 251.768C216.606 260.452 217.034 269.261 218.886 277.766C222.145 292.738 230.291 307.909 240.662 319.153C249.785 329.044 262.162 336.93 274.578 341.928C279.714 343.995 284.893 345.704 290.487 345.898C293.898 346.017 297.183 345.645 300.557 345.264C311.417 344.039 322.707 341.135 332.663 336.622C334.722 335.689 336.709 334.618 338.672 333.495C340.061 332.701 341.587 331.499 343.182 331.246C340.999 334.169 338.459 336.749 335.926 339.365C333.828 341.531 331.76 343.807 329.476 345.78C318.992 354.833 306.306 361.53 293.356 366.257C289.877 367.527 286.423 368.939 282.781 369.68C280.528 370.603 277.471 370.792 275.062 371.25C266.718 372.84 257.833 373.469 249.347 372.936C240.819 372.4 232.333 370.566 224.123 368.272C201.366 361.915 179.474 346.711 165.28 327.792C161.58 322.861 158.644 317.563 155.621 312.207C155.2 310.865 154.446 309.522 153.846 308.243L153.385 308.879C153.509 309.244 153.643 309.513 153.819 309.853C154.202 310.593 154.135 311.472 153.836 312.233C153.675 312.642 153.413 312.929 153.125 313.254L152.897 313.189C152.535 313.097 152.672 313.125 152.25 313.125L152.123 313.375L151.75 313.375L151.938 313.812L151.75 314.125L151.375 313.877L150.623 313.625L150.128 313.384L149.451 313.779L149.229 313.759C148.194 312.743 146.685 311.375 146.059 310.067C145.689 309.292 146.072 309.949 145.662 309.273C145.323 308.714 145.001 308.285 144.888 307.627C144.816 307.205 144.922 307.322 144.71 306.991L142.32 303.321L142.128 304.396C141.171 302.078 140.497 299.521 139.742 297.125C138.274 292.465 136.915 287.633 136.268 282.78C135.733 281.29 135.626 279.398 135.438 277.822C134.45 275.23 134.606 271.557 134.538 268.788C134.398 263.058 134.278 257.169 134.757 251.456C134.672 249.297 135.131 247.191 135.441 245.062C136.398 238.488 137.868 232.412 139.585 226.008C139.776 224.536 140.447 222.924 140.937 221.513C142.103 218.156 143.423 214.88 144.921 211.656C147.089 206.944 149.32 202.362 152.155 198C152.474 197.51 152.775 197.086 153.163 196.648L153.402 196.861C154.406 196.045 155.059 195.087 155.967 194.217C156.625 193.585 157.299 193.175 157.766 192.366C159.039 190.165 161.371 189.136 163.5 187.974C164.347 187.512 165.12 186.909 165.982 186.474C167.479 185.717 168.71 183.943 170.11 183.395C171.059 182.406 172.285 181.413 173.517 180.815C174.558 180.31 175.838 179.815 176.97 180.221L177.503 180.409C178.166 180.527 178.932 179.703 179.411 179.309C186.541 173.479 193.409 167.802 201.683 163.624C203.223 162.626 204.983 161.85 206.656 161.098C207.777 160.357 209.059 159.865 210.284 159.319C210.821 158.899 211.787 158.641 212.437 158.386L212.697 158.244C213.621 158.75 213.941 158.486 214.942 158.254C215.696 158.047 215.803 157.973 216.53 158.224L216.625 158.921L217.875 158.331L218.454 158.382L218.709 159.055C219.153 158.97 220.443 157.769 220.864 157.455C222.766 156.036 224.893 154.992 226.745 153.579ZM210.284 159.319C209.059 159.865 207.777 160.357 206.656 161.098C204.983 161.85 203.223 162.626 201.683 163.624C193.409 167.802 186.541 173.479 179.411 179.309C178.932 179.703 178.166 180.527 177.503 180.409L176.97 180.221C175.838 179.815 174.558 180.31 173.517 180.815C172.285 181.413 171.059 182.406 170.11 183.395C168.71 183.943 167.479 185.717 165.982 186.474C165.12 186.909 164.347 187.512 163.5 187.974C161.371 189.136 159.039 190.165 157.766 192.366C157.299 193.175 156.625 193.585 155.967 194.217C155.059 195.087 154.406 196.045 153.402 196.861L153.163 196.648C152.775 197.086 152.474 197.51 152.155 198C149.32 202.362 147.089 206.944 144.921 211.656C143.423 214.88 142.103 218.156 140.937 221.513C140.447 222.924 139.776 224.536 139.585 226.008C137.868 232.412 136.398 238.488 135.441 245.062C135.131 247.191 134.672 249.297 134.757 251.456C134.278 257.169 134.398 263.058 134.538 268.788C134.606 271.557 134.45 275.23 135.438 277.822C135.626 279.398 135.733 281.29 136.268 282.78C136.915 287.633 138.274 292.465 139.742 297.125C140.497 299.521 141.171 302.078 142.128 304.396L142.32 303.321L144.71 306.991C144.922 307.322 144.816 307.205 144.888 307.627C145.001 308.285 145.323 308.714 145.662 309.273C146.072 309.949 145.689 309.292 146.059 310.067C146.685 311.375 148.194 312.743 149.229 313.759L149.451 313.779L150.128 313.384L150.623 313.625L151.375 313.877L151.75 314.125L151.938 313.812L151.75 313.375L152.123 313.375L152.25 313.125C152.672 313.125 152.535 313.097 152.897 313.189L153.125 313.254C153.413 312.929 153.675 312.642 153.836 312.233C154.135 311.472 154.202 310.593 153.819 309.853C153.643 309.513 153.509 309.244 153.385 308.879L153.846 308.243C154.446 309.522 155.2 310.865 155.621 312.207C158.644 317.563 161.58 322.861 165.28 327.792C179.474 346.711 201.366 361.915 224.123 368.272C232.333 370.566 240.819 372.4 249.347 372.936C257.833 373.469 266.718 372.84 275.062 371.25C277.471 370.792 280.528 370.603 282.781 369.68C280.85 369.485 278.658 370.042 276.684 370.081C265.677 370.297 254.962 368.715 244.29 366.103C237.449 364.429 230.858 362.503 224.425 359.597C215.892 355.741 208.135 350.877 200.554 345.42C196.144 342.246 191.616 339.081 187.724 335.275C181.504 329.192 178.014 321.373 174.982 313.351C168.204 295.418 164.93 276.509 164.783 257.359C164.64 238.77 168.188 220.832 175.502 203.734C177.535 198.984 179.75 194.152 182.927 190.044C186.687 185.183 191.712 182.026 195.914 177.698L196.062 177.543L201.277 172.945C202.133 172.374 202.831 171.75 203.557 171.022C204.293 170.52 204.964 169.877 205.643 169.299C205.19 169.284 204.811 169.433 204.375 169.554C204.248 168.833 204.875 168.733 204.75 168.25C204.604 167.685 205.24 166.942 205.216 166.125L205.477 165.702C205.726 165.289 205.883 165.025 206.265 164.718C207.027 164.106 207.653 163.342 208.42 162.745C209.13 162.192 209.965 161.781 210.641 161.18C211.487 160.428 212.352 159.504 212.437 158.386C211.787 158.641 210.821 158.899 210.284 159.319ZM214.942 158.254C213.941 158.486 213.621 158.75 212.697 158.244L212.437 158.386C212.352 159.504 211.487 160.428 210.641 161.18C209.965 161.781 209.13 162.192 208.42 162.745C207.653 163.342 207.027 164.106 206.265 164.718C205.883 165.025 205.726 165.289 205.477 165.702L205.216 166.125C205.24 166.942 204.604 167.685 204.75 168.25C204.875 168.733 204.248 168.833 204.375 169.554C204.811 169.433 205.19 169.284 205.643 169.299L213.515 162.834C215.314 161.984 217.106 160.288 218.709 159.055L218.454 158.382L217.875 158.331L216.625 158.921L216.53 158.224C215.803 157.973 215.696 158.047 214.942 158.254Z"/>
	<path fill="#413F41" fill-opacity="0.47843137" transform="scale(1.33333 1.33333)" d="M214.942 158.254C215.696 158.047 215.803 157.973 216.53 158.224L216.625 158.921L217.875 158.331L218.454 158.382L218.709 159.055C217.106 160.288 215.314 161.984 213.515 162.834L205.643 169.299C205.19 169.284 204.811 169.433 204.375 169.554C204.248 168.833 204.875 168.733 204.75 168.25C204.604 167.685 205.24 166.942 205.216 166.125L205.477 165.702C205.726 165.289 205.883 165.025 206.265 164.718C207.027 164.106 207.653 163.342 208.42 162.745C209.13 162.192 209.965 161.781 210.641 161.18C211.487 160.428 212.352 159.504 212.437 158.386L212.697 158.244C213.621 158.75 213.941 158.486 214.942 158.254ZM214.942 158.254C213.978 158.971 213.076 159.451 212.466 160.5C212.106 161.12 211.68 161.566 211.207 162.094C210.945 162.387 211.034 162.295 210.875 162.75L211.251 163.748C211.743 163.728 211.821 163.63 212.231 163.377C212.672 163.106 212.996 162.921 213.515 162.834C215.314 161.984 217.106 160.288 218.709 159.055L218.454 158.382L217.875 158.331L216.625 158.921L216.53 158.224C215.803 157.973 215.696 158.047 214.942 158.254Z"/>
	<path fill="#414041" fill-opacity="0.36078432" transform="scale(1.33333 1.33333)" d="M214.942 158.254C215.696 158.047 215.803 157.973 216.53 158.224L216.625 158.921L217.875 158.331L218.454 158.382L218.709 159.055C217.106 160.288 215.314 161.984 213.515 162.834C212.996 162.921 212.672 163.106 212.231 163.377C211.821 163.63 211.743 163.728 211.251 163.748L210.875 162.75C211.034 162.295 210.945 162.387 211.207 162.094C211.68 161.566 212.106 161.12 212.466 160.5C213.076 159.451 213.978 158.971 214.942 158.254Z"/>
	<path fill="#413F41" transform="scale(1.33333 1.33333)" d="M210.284 159.319C210.821 158.899 211.787 158.641 212.437 158.386C212.352 159.504 211.487 160.428 210.641 161.18C209.965 161.781 209.13 162.192 208.42 162.745C207.653 163.342 207.027 164.106 206.265 164.718C205.883 165.025 205.726 165.289 205.477 165.702L205.216 166.125C205.24 166.942 204.604 167.685 204.75 168.25C204.875 168.733 204.248 168.833 204.375 169.554C204.811 169.433 205.19 169.284 205.643 169.299C204.964 169.877 204.293 170.52 203.557 171.022C202.831 171.75 202.133 172.374 201.277 172.945L196.062 177.543L195.914 177.698C191.712 182.026 186.687 185.183 182.927 190.044C179.75 194.152 177.535 198.984 175.502 203.734C168.188 220.832 164.64 238.77 164.783 257.359C164.93 276.509 168.204 295.418 174.982 313.351C178.014 321.373 181.504 329.192 187.724 335.275C191.616 339.081 196.144 342.246 200.554 345.42C208.135 350.877 215.892 355.741 224.425 359.597C230.858 362.503 237.449 364.429 244.29 366.103C254.962 368.715 265.677 370.297 276.684 370.081C278.658 370.042 280.85 369.485 282.781 369.68C280.528 370.603 277.471 370.792 275.062 371.25C266.718 372.84 257.833 373.469 249.347 372.936C240.819 372.4 232.333 370.566 224.123 368.272C201.366 361.915 179.474 346.711 165.28 327.792C161.58 322.861 158.644 317.563 155.621 312.207C155.2 310.865 154.446 309.522 153.846 308.243L153.385 308.879C153.509 309.244 153.643 309.513 153.819 309.853C154.202 310.593 154.135 311.472 153.836 312.233C153.675 312.642 153.413 312.929 153.125 313.254L152.897 313.189C152.535 313.097 152.672 313.125 152.25 313.125L152.123 313.375L151.75 313.375L151.938 313.812L151.75 314.125L151.375 313.877L150.623 313.625L150.128 313.384L149.451 313.779L149.229 313.759C148.194 312.743 146.685 311.375 146.059 310.067C145.689 309.292 146.072 309.949 145.662 309.273C145.323 308.714 145.001 308.285 144.888 307.627C144.816 307.205 144.922 307.322 144.71 306.991L142.32 303.321L142.128 304.396C141.171 302.078 140.497 299.521 139.742 297.125C138.274 292.465 136.915 287.633 136.268 282.78C135.733 281.29 135.626 279.398 135.438 277.822C134.45 275.23 134.606 271.557 134.538 268.788C134.398 263.058 134.278 257.169 134.757 251.456C134.672 249.297 135.131 247.191 135.441 245.062C136.398 238.488 137.868 232.412 139.585 226.008C139.776 224.536 140.447 222.924 140.937 221.513C142.103 218.156 143.423 214.88 144.921 211.656C147.089 206.944 149.32 202.362 152.155 198C152.474 197.51 152.775 197.086 153.163 196.648L153.402 196.861C154.406 196.045 155.059 195.087 155.967 194.217C156.625 193.585 157.299 193.175 157.766 192.366C159.039 190.165 161.371 189.136 163.5 187.974C164.347 187.512 165.12 186.909 165.982 186.474C167.479 185.717 168.71 183.943 170.11 183.395C171.059 182.406 172.285 181.413 173.517 180.815C174.558 180.31 175.838 179.815 176.97 180.221L177.503 180.409C178.166 180.527 178.932 179.703 179.411 179.309C186.541 173.479 193.409 167.802 201.683 163.624C203.223 162.626 204.983 161.85 206.656 161.098C207.777 160.357 209.059 159.865 210.284 159.319ZM179.411 179.309C178.932 179.703 178.166 180.527 177.503 180.409L176.97 180.221C175.838 179.815 174.558 180.31 173.517 180.815C172.285 181.413 171.059 182.406 170.11 183.395C168.71 183.943 167.479 185.717 165.982 186.474C165.12 186.909 164.347 187.512 163.5 187.974C161.371 189.136 159.039 190.165 157.766 192.366C157.299 193.175 156.625 193.585 155.967 194.217C155.059 195.087 154.406 196.045 153.402 196.861L153.163 196.648C152.775 197.086 152.474 197.51 152.155 198C149.32 202.362 147.089 206.944 144.921 211.656C143.423 214.88 142.103 218.156 140.937 221.513C140.447 222.924 139.776 224.536 139.585 226.008C137.868 232.412 136.398 238.488 135.441 245.062C135.131 247.191 134.672 249.297 134.757 251.456C134.278 257.169 134.398 263.058 134.538 268.788C134.606 271.557 134.45 275.23 135.438 277.822C135.626 279.398 135.733 281.29 136.268 282.78C136.915 287.633 138.274 292.465 139.742 297.125C140.497 299.521 141.171 302.078 142.128 304.396L142.32 303.321L144.71 306.991C144.922 307.322 144.816 307.205 144.888 307.627C145.001 308.285 145.323 308.714 145.662 309.273C146.072 309.949 145.689 309.292 146.059 310.067C146.685 311.375 148.194 312.743 149.229 313.759L149.451 313.779L150.128 313.384L150.623 313.625L151.375 313.877L151.75 314.125L151.938 313.812L151.75 313.375L152.123 313.375L152.25 313.125C152.672 313.125 152.535 313.097 152.897 313.189L153.125 313.254C153.413 312.929 153.675 312.642 153.836 312.233C154.135 311.472 154.202 310.593 153.819 309.853C153.643 309.513 153.509 309.244 153.385 308.879L153.846 308.243L153.404 307.215L152.906 305.725L151.995 303.459L151.697 302.644L149.444 296.405C149.012 293.75 148.052 290.888 147.253 288.295C146.461 283.866 145.444 279.555 144.891 275.07C144.236 269.763 144.159 264.407 144.148 259.067C144.511 242.96 148.189 227.029 155.198 212.5C157.604 207.511 160.476 202.815 163.381 198.111C164.412 197.004 165.208 195.599 166.139 194.396L172.089 187.232C173.259 185.911 179.207 180.37 179.357 179.593L179.411 179.309ZM210.284 159.319C209.059 159.865 207.777 160.357 206.656 161.098C206.449 161.656 206.227 162.021 205.868 162.482C205.594 162.835 205.48 163.123 205.269 163.5C204.996 163.99 204.441 164.259 204.034 164.625C202.87 165.671 201.567 166.786 200.771 168.118C200.42 168.706 199.865 169.181 199.372 169.651C199.374 170.676 199.133 172.501 199.647 173.375L200.157 173.43L200.761 172.818L201.277 172.945C202.133 172.374 202.831 171.75 203.557 171.022C204.293 170.52 204.964 169.877 205.643 169.299C205.19 169.284 204.811 169.433 204.375 169.554C204.248 168.833 204.875 168.733 204.75 168.25C204.604 167.685 205.24 166.942 205.216 166.125L205.477 165.702C205.726 165.289 205.883 165.025 206.265 164.718C207.027 164.106 207.653 163.342 208.42 162.745C209.13 162.192 209.965 161.781 210.641 161.18C211.487 160.428 212.352 159.504 212.437 158.386C211.787 158.641 210.821 158.899 210.284 159.319ZM201.683 163.624C201.584 164.145 201.67 164.253 201.251 164.6C200.541 165.188 200.011 166.128 199.601 166.938C198.896 168.33 197.385 169.663 196.457 171L196.877 171.625L196.751 172.001C196.644 172.366 196.568 172.711 196.707 173.085L197.127 173.625L197.625 174.377L196.751 174.562C196.994 174.867 197.213 175.102 197.5 175.375L197.246 175.613C196.926 175.934 196.729 176.24 196.5 176.625L196.25 176.625L196 175.877L195.785 176.086L195.938 176.938L195.54 177.135L196.062 177.543L201.277 172.945L200.761 172.818L200.157 173.43L199.647 173.375C199.133 172.501 199.374 170.676 199.372 169.651C199.865 169.181 200.42 168.706 200.771 168.118C201.567 166.786 202.87 165.671 204.034 164.625C204.441 164.259 204.996 163.99 205.269 163.5C205.48 163.123 205.594 162.835 205.868 162.482C206.227 162.021 206.449 161.656 206.656 161.098C204.983 161.85 203.223 162.626 201.683 163.624Z"/>
	<path fill="#414041" fill-opacity="0.72549021" transform="scale(1.33333 1.33333)" d="M201.683 163.624C203.223 162.626 204.983 161.85 206.656 161.098C206.449 161.656 206.227 162.021 205.868 162.482C205.594 162.835 205.48 163.123 205.269 163.5C204.996 163.99 204.441 164.259 204.034 164.625C202.87 165.671 201.567 166.786 200.771 168.118C200.42 168.706 199.865 169.181 199.372 169.651C199.374 170.676 199.133 172.501 199.647 173.375L200.157 173.43L200.761 172.818L201.277 172.945L196.062 177.543L195.54 177.135L195.938 176.938L195.785 176.086L196 175.877L196.25 176.625L196.5 176.625C196.729 176.24 196.926 175.934 197.246 175.613L197.5 175.375C197.213 175.102 196.994 174.867 196.751 174.562L197.625 174.377L197.127 173.625L196.707 173.085C196.568 172.711 196.644 172.366 196.751 172.001L196.877 171.625L196.457 171C197.385 169.663 198.896 168.33 199.601 166.938C200.011 166.128 200.541 165.188 201.251 164.6C201.67 164.253 201.584 164.145 201.683 163.624Z"/>
	<path fill="#413F41" fill-opacity="0.66274512" transform="scale(1.33333 1.33333)" d="M210.284 159.319C210.821 158.899 211.787 158.641 212.437 158.386C212.352 159.504 211.487 160.428 210.641 161.18C209.965 161.781 209.13 162.192 208.42 162.745C207.653 163.342 207.027 164.106 206.265 164.718C205.883 165.025 205.726 165.289 205.477 165.702L205.216 166.125C205.24 166.942 204.604 167.685 204.75 168.25C204.875 168.733 204.248 168.833 204.375 169.554C204.811 169.433 205.19 169.284 205.643 169.299C204.964 169.877 204.293 170.52 203.557 171.022C202.831 171.75 202.133 172.374 201.277 172.945L200.761 172.818L200.157 173.43L199.647 173.375C199.133 172.501 199.374 170.676 199.372 169.651C199.865 169.181 200.42 168.706 200.771 168.118C201.567 166.786 202.87 165.671 204.034 164.625C204.441 164.259 204.996 163.99 205.269 163.5C205.48 163.123 205.594 162.835 205.868 162.482C206.227 162.021 206.449 161.656 206.656 161.098C207.777 160.357 209.059 159.865 210.284 159.319ZM210.284 159.319L210.141 160.113L208.957 160.836C208.567 161.054 208.8 160.923 208.447 161.289C207.993 161.759 207.457 161.91 206.857 162.125L206.733 162.461C205.991 164.329 204.258 165.192 203.134 166.893C203.714 166.721 203.47 166.822 203.877 166.625L203.875 168.75C203.452 169.062 202.72 169.447 202.591 169.959C202.49 170.359 202.264 170.574 202.077 170.925L201.877 171.375L202.25 171.623C202.776 171.184 202.793 171.005 203.505 170.982L203.557 171.022C204.293 170.52 204.964 169.877 205.643 169.299C205.19 169.284 204.811 169.433 204.375 169.554C204.248 168.833 204.875 168.733 204.75 168.25C204.604 167.685 205.24 166.942 205.216 166.125L205.477 165.702C205.726 165.289 205.883 165.025 206.265 164.718C207.027 164.106 207.653 163.342 208.42 162.745C209.13 162.192 209.965 161.781 210.641 161.18C211.487 160.428 212.352 159.504 212.437 158.386C211.787 158.641 210.821 158.899 210.284 159.319Z"/>
	<path fill="#434042" fill-opacity="0.62352943" transform="scale(1.33333 1.33333)" d="M210.284 159.319C210.821 158.899 211.787 158.641 212.437 158.386C212.352 159.504 211.487 160.428 210.641 161.18C209.965 161.781 209.13 162.192 208.42 162.745C207.653 163.342 207.027 164.106 206.265 164.718C205.883 165.025 205.726 165.289 205.477 165.702L205.216 166.125C205.24 166.942 204.604 167.685 204.75 168.25C204.875 168.733 204.248 168.833 204.375 169.554C204.811 169.433 205.19 169.284 205.643 169.299C204.964 169.877 204.293 170.52 203.557 171.022L203.505 170.982C202.793 171.005 202.776 171.184 202.25 171.623L201.877 171.375L202.077 170.925C202.264 170.574 202.49 170.359 202.591 169.959C202.72 169.447 203.452 169.062 203.875 168.75L203.877 166.625C203.47 166.822 203.714 166.721 203.134 166.893C204.258 165.192 205.991 164.329 206.733 162.461L206.857 162.125C207.457 161.91 207.993 161.759 208.447 161.289C208.8 160.923 208.567 161.054 208.957 160.836L210.141 160.113L210.284 159.319Z"/>
	<defs>
		<linearGradient id="gradient_2" gradientUnits="userSpaceOnUse" x1="164.93268" y1="237.42075" x2="140.38309" y2="234.07912">
			<stop offset="0" stop-color="#F6F6EF" stop-opacity="0.7764706"/>
			<stop offset="1" stop-color="#F8F9F0" stop-opacity="0.92941177"/>
		</linearGradient>
	</defs>
	<path fill="url(#gradient_2)" transform="scale(1.33333 1.33333)" d="M179.411 179.309L179.357 179.593C179.207 180.37 173.259 185.911 172.089 187.232L166.139 194.396C165.208 195.599 164.412 197.004 163.381 198.111C160.476 202.815 157.604 207.511 155.198 212.5C148.189 227.029 144.511 242.96 144.148 259.067C144.159 264.407 144.236 269.763 144.891 275.07C145.444 279.555 146.461 283.866 147.253 288.295C148.052 290.888 149.012 293.75 149.444 296.405L151.697 302.644L151.995 303.459L152.906 305.725L153.404 307.215L153.846 308.243L153.385 308.879C153.509 309.244 153.643 309.513 153.819 309.853C154.202 310.593 154.135 311.472 153.836 312.233C153.675 312.642 153.413 312.929 153.125 313.254L152.897 313.189C152.535 313.097 152.672 313.125 152.25 313.125L152.123 313.375L151.75 313.375L151.938 313.812L151.75 314.125L151.375 313.877L150.623 313.625L150.128 313.384L149.451 313.779L149.229 313.759C148.194 312.743 146.685 311.375 146.059 310.067C145.689 309.292 146.072 309.949 145.662 309.273C145.323 308.714 145.001 308.285 144.888 307.627C144.816 307.205 144.922 307.322 144.71 306.991L142.32 303.321L142.128 304.396C141.171 302.078 140.497 299.521 139.742 297.125C138.274 292.465 136.915 287.633 136.268 282.78C135.733 281.29 135.626 279.398 135.438 277.822C134.45 275.23 134.606 271.557 134.538 268.788C134.398 263.058 134.278 257.169 134.757 251.456C134.672 249.297 135.131 247.191 135.441 245.062C136.398 238.488 137.868 232.412 139.585 226.008C139.776 224.536 140.447 222.924 140.937 221.513C142.103 218.156 143.423 214.88 144.921 211.656C147.089 206.944 149.32 202.362 152.155 198C152.474 197.51 152.775 197.086 153.163 196.648L153.402 196.861C154.406 196.045 155.059 195.087 155.967 194.217C156.625 193.585 157.299 193.175 157.766 192.366C159.039 190.165 161.371 189.136 163.5 187.974C164.347 187.512 165.12 186.909 165.982 186.474C167.479 185.717 168.71 183.943 170.11 183.395C171.059 182.406 172.285 181.413 173.517 180.815C174.558 180.31 175.838 179.815 176.97 180.221L177.503 180.409C178.166 180.527 178.932 179.703 179.411 179.309ZM139.585 226.008C137.868 232.412 136.398 238.488 135.441 245.062C135.131 247.191 134.672 249.297 134.757 251.456C134.278 257.169 134.398 263.058 134.538 268.788C134.606 271.557 134.45 275.23 135.438 277.822C135.626 279.398 135.733 281.29 136.268 282.78C136.915 287.633 138.274 292.465 139.742 297.125C140.497 299.521 141.171 302.078 142.128 304.396L142.32 303.321L144.71 306.991C144.922 307.322 144.816 307.205 144.888 307.627C145.001 308.285 145.323 308.714 145.662 309.273C146.072 309.949 145.689 309.292 146.059 310.067C146.685 311.375 148.194 312.743 149.229 313.759L149.451 313.779L150.128 313.384L150.623 313.625L151.375 313.877L151.75 314.125L151.938 313.812L151.75 313.375L152.123 313.375L152.25 313.125C152.672 313.125 152.535 313.097 152.897 313.189L153.125 313.254C153.413 312.929 153.675 312.642 153.836 312.233C154.135 311.472 154.202 310.593 153.819 309.853C153.643 309.513 153.509 309.244 153.385 308.879L153.846 308.243L153.404 307.215L152.906 305.725L151.995 303.459L151.697 302.644L149.444 296.405C149.012 293.75 148.052 290.888 147.253 288.295L146.874 288.604C146.787 287.972 146.491 287.439 146.414 286.835C146.351 286.337 146.241 285.864 146.127 285.375C145.892 285.894 145.725 286.226 145.793 286.806L145.85 287.219L144.93 287.586L143.969 290.752L143.412 286.751L143.25 287L142.875 287.127L142.75 287.875L141.849 287.572C141.544 286.13 141.503 284.436 141.872 283.001C142.152 281.916 142.047 281.228 141.875 280.127L141.688 280.938L140.875 280.627L141 281.375L140.175 280.927C140.031 280.057 139.411 279.504 139.187 278.554L139.122 278.25C138.792 276.989 138.858 276.109 139.083 274.83C138.094 270.755 138.709 266.752 138.882 262.635C139.039 258.881 138.596 254.27 137.473 250.656C136.849 248.646 137.135 244.769 137.791 242.75C138.505 240.557 139.425 238.855 139.805 236.5C140.034 235.08 140.098 233.645 140.106 232.209C140.109 231.514 139.988 230.63 140.248 229.978L140.373 229.75C139.968 229.141 140.043 228.2 139.991 227.464C140.037 226.862 139.849 226.538 139.585 226.008ZM153.163 196.648C152.775 197.086 152.474 197.51 152.155 198C149.32 202.362 147.089 206.944 144.921 211.656L145.367 212.133C145.872 211.711 147.2 210.355 147.362 209.75C147.711 208.441 148.174 207.458 149.08 206.42L149.987 206.454C150.448 205.849 150.779 205.323 150.99 204.586L151.073 204.265C151.726 203.591 152.437 202.776 153.303 202.38L153.57 202.278L153.5 202L153.373 201.766L153.75 201.248C154.858 200.835 155.276 200.383 156.132 199.628C156.631 199.188 157.073 198.841 157.504 198.322C158.655 196.936 160.523 195.929 161.915 194.754C162.692 194.098 163.145 193.151 163.885 192.435C164.606 191.737 165.421 191.004 166.021 190.202C166.592 189.439 166.913 188.537 167.545 187.794C167.791 187.505 168 187.317 168.085 186.929C168.435 185.331 168.96 185.006 170.109 183.881L170.11 183.395C168.71 183.943 167.479 185.717 165.982 186.474C165.12 186.909 164.347 187.512 163.5 187.974C161.371 189.136 159.039 190.165 157.766 192.366C157.299 193.175 156.625 193.585 155.967 194.217C155.059 195.087 154.406 196.045 153.402 196.861L153.163 196.648ZM139.585 226.008C139.849 226.538 140.037 226.862 139.991 227.464C140.043 228.2 139.968 229.141 140.373 229.75L140.248 229.978C139.988 230.63 140.109 231.514 140.106 232.209C140.098 233.645 140.034 235.08 139.805 236.5C139.425 238.855 138.505 240.557 137.791 242.75C137.135 244.769 136.849 248.646 137.473 250.656C138.596 254.27 139.039 258.881 138.882 262.635C138.709 266.752 138.094 270.755 139.083 274.83C139.236 274.419 139.418 274.061 139.325 273.617C139.081 272.453 139.611 271.749 139.626 270.59L139.479 264.738C139.502 262.643 140.289 255.301 139.506 253.811C139.337 253.49 139.394 253.461 139.437 253.091L139 253.189L138.75 253.375C138.51 253.141 138.493 252.751 138.41 252.43L138.645 252.136L138.513 251.909C138.279 251.365 138.262 250.525 138.481 249.976C139.06 248.528 138.478 246.268 138.709 244.663C139.015 242.543 140.297 240.602 140.684 238.462C141.282 235.159 141.435 231.644 141.919 228.297C142.084 227.161 142.139 225.801 142.635 224.756L143.459 222.874L143.25 222.625L143.123 222.513C143.644 221.959 143.554 221.653 143.623 220.912L144 221.125L144.256 220.864L144.373 219.517L144.816 218.748C145.023 218.127 144.912 217.33 144.562 216.812C144.496 217.947 144.436 217.939 143.625 218.75C143.611 218.085 143.515 217.27 143.69 216.628C144.099 215.129 145.082 213.866 145.333 212.357L145.367 212.133L144.921 211.656C143.423 214.88 142.103 218.156 140.937 221.513C140.447 222.924 139.776 224.536 139.585 226.008ZM144.148 259.067C144.511 242.96 148.189 227.029 155.198 212.5C157.604 207.511 160.476 202.815 163.381 198.111C162.209 198.629 161.958 199.49 161.25 200.445C160.761 201.104 160.033 201.362 159.517 201.978C158.529 203.16 158.741 203.701 157.125 204.467L156.377 205.622C156.965 205.475 156.72 205.573 157.127 205.375L157.125 205.877C156.592 206.233 156.409 206.311 156.127 206.875L156.377 207.5L156.001 207.751L155.627 208.5C155.979 208.612 156.123 208.655 156.5 208.625C156.419 209.207 156.289 209.285 156 209.75L155.625 210.5L155.439 210.75L155.25 211.375L154.877 211.625L154.875 212L154.5 212.75L154.375 213.25C154.269 213.552 154.075 213.733 153.939 214L153.75 214.625L151.562 219.501C151.408 219.831 151.279 220.148 151.191 220.5C151.094 220.888 151.158 220.664 150.934 221.113C150.728 221.524 150.699 221.739 150.688 222.188L150.377 222.375L150.375 222.75L150.125 223.5L149.758 224.625C149.585 225.142 149.678 224.874 149.426 225.379C149.197 225.837 149.265 225.627 149.223 226.09C149.18 226.556 148.704 227.89 148.469 228.328C148.161 228.9 148.314 229.114 148.188 229.688C148.125 229.969 147.857 230.274 147.689 230.5L147.697 230.74C147.715 231.389 147.694 231.657 147.439 232.25C147.124 232.982 147.279 233.852 146.627 234.375L146.662 234.656C146.713 235.179 146.612 235.316 146.439 235.75L146.375 236.127L146.127 236.5L146.197 236.969C146.272 237.52 146.237 238.039 145.875 238.5L145.627 238.75C145.708 239.47 145.788 240.038 145.625 240.75L145.57 241.055C145.463 241.592 145.552 241.164 145.371 241.707C145.03 242.73 145.484 243.385 144.627 244.25C144.746 245.326 144.825 246.085 144.5 247.125C144.373 247.533 144.447 248.207 144.446 248.637C144.445 249.349 144.458 248.445 144.25 249.375C144.119 249.961 144.414 250.837 144.25 251.375C143.947 252.368 143.239 252 143.939 253.25L143.912 253.488L143.651 256.812C143.521 258.139 143.435 260.721 143.842 261.951L143.932 259.205L144.148 259.067Z"/>
	<path fill="#F8F7F2" fill-opacity="0.97647059" transform="scale(1.33333 1.33333)" d="M144.148 259.067L143.932 259.205L143.842 261.951C143.435 260.721 143.521 258.139 143.651 256.812L143.912 253.488L143.939 253.25C143.239 252 143.947 252.368 144.25 251.375C144.414 250.837 144.119 249.961 144.25 249.375C144.458 248.445 144.445 249.349 144.446 248.637C144.447 248.207 144.373 247.533 144.5 247.125C144.825 246.085 144.746 245.326 144.627 244.25C145.484 243.385 145.03 242.73 145.371 241.707C145.552 241.164 145.463 241.592 145.57 241.055L145.625 240.75C145.788 240.038 145.708 239.47 145.627 238.75L145.875 238.5C146.237 238.039 146.272 237.52 146.197 236.969L146.127 236.5L146.375 236.127L146.439 235.75C146.612 235.316 146.713 235.179 146.662 234.656L146.627 234.375C147.279 233.852 147.124 232.982 147.439 232.25C147.694 231.657 147.715 231.389 147.697 230.74L147.689 230.5C147.857 230.274 148.125 229.969 148.188 229.688C148.314 229.114 148.161 228.9 148.469 228.328C148.704 227.89 149.18 226.556 149.223 226.09C149.265 225.627 149.197 225.837 149.426 225.379C149.678 224.874 149.585 225.142 149.758 224.625L150.125 223.5L150.375 222.75L150.377 222.375L150.688 222.188C150.699 221.739 150.728 221.524 150.934 221.113C151.158 220.664 151.094 220.888 151.191 220.5C151.279 220.148 151.408 219.831 151.562 219.501L153.75 214.625L153.939 214C154.075 213.733 154.269 213.552 154.375 213.25L154.5 212.75L154.875 212L154.877 211.625L155.25 211.375L155.439 210.75L155.625 210.5L156 209.75C156.289 209.285 156.419 209.207 156.5 208.625C156.123 208.655 155.979 208.612 155.627 208.5L156.001 207.751L156.377 207.5L156.127 206.875C156.409 206.311 156.592 206.233 157.125 205.877L157.127 205.375C156.72 205.573 156.965 205.475 156.377 205.622L157.125 204.467C158.741 203.701 158.529 203.16 159.517 201.978C160.033 201.362 160.761 201.104 161.25 200.445C161.958 199.49 162.209 198.629 163.381 198.111C160.476 202.815 157.604 207.511 155.198 212.5C148.189 227.029 144.511 242.96 144.148 259.067Z"/>
	<path fill="#F7F8F0" fill-opacity="0.79215688" transform="scale(1.33333 1.33333)" d="M139.585 226.008C139.776 224.536 140.447 222.924 140.937 221.513C142.103 218.156 143.423 214.88 144.921 211.656L145.367 212.133L145.333 212.357C145.082 213.866 144.099 215.129 143.69 216.628C143.515 217.27 143.611 218.085 143.625 218.75C144.436 217.939 144.496 217.947 144.562 216.812C144.912 217.33 145.023 218.127 144.816 218.748L144.373 219.517L144.256 220.864L144 221.125L143.623 220.912C143.554 221.653 143.644 221.959 143.123 222.513L143.25 222.625L143.459 222.874L142.635 224.756C142.139 225.801 142.084 227.161 141.919 228.297C141.435 231.644 141.282 235.159 140.684 238.462C140.297 240.602 139.015 242.543 138.709 244.663C138.478 246.268 139.06 248.528 138.481 249.976C138.262 250.525 138.279 251.365 138.513 251.909L138.645 252.136L138.41 252.43C138.493 252.751 138.51 253.141 138.75 253.375L139 253.189L139.437 253.091C139.394 253.461 139.337 253.49 139.506 253.811C140.289 255.301 139.502 262.643 139.479 264.738L139.626 270.59C139.611 271.749 139.081 272.453 139.325 273.617C139.418 274.061 139.236 274.419 139.083 274.83C138.094 270.755 138.709 266.752 138.882 262.635C139.039 258.881 138.596 254.27 137.473 250.656C136.849 248.646 137.135 244.769 137.791 242.75C138.505 240.557 139.425 238.855 139.805 236.5C140.034 235.08 140.098 233.645 140.106 232.209C140.109 231.514 139.988 230.63 140.248 229.978L140.373 229.75C139.968 229.141 140.043 228.2 139.991 227.464C140.037 226.862 139.849 226.538 139.585 226.008Z"/>
	<path fill="#F7F8EE" fill-opacity="0.74117649" transform="scale(1.33333 1.33333)" d="M153.163 196.648L153.402 196.861C154.406 196.045 155.059 195.087 155.967 194.217C156.625 193.585 157.299 193.175 157.766 192.366C159.039 190.165 161.371 189.136 163.5 187.974C164.347 187.512 165.12 186.909 165.982 186.474C167.479 185.717 168.71 183.943 170.11 183.395L170.109 183.881C168.96 185.006 168.435 185.331 168.085 186.929C168 187.317 167.791 187.505 167.545 187.794C166.913 188.537 166.592 189.439 166.021 190.202C165.421 191.004 164.606 191.737 163.885 192.435C163.145 193.151 162.692 194.098 161.915 194.754C160.523 195.929 158.655 196.936 157.504 198.322C157.073 198.841 156.631 199.188 156.132 199.628C155.276 200.383 154.858 200.835 153.75 201.248L153.373 201.766L153.5 202L153.57 202.278L153.303 202.38C152.437 202.776 151.726 203.591 151.073 204.265L150.99 204.586C150.779 205.323 150.448 205.849 149.987 206.454L149.08 206.42C148.174 207.458 147.711 208.441 147.362 209.75C147.2 210.355 145.872 211.711 145.367 212.133L144.921 211.656C147.089 206.944 149.32 202.362 152.155 198C152.474 197.51 152.775 197.086 153.163 196.648Z"/>
	<path fill="#F7F8EE" fill-opacity="0.65098041" transform="scale(1.33333 1.33333)" d="M139.585 226.008C139.849 226.538 140.037 226.862 139.991 227.464C140.043 228.2 139.968 229.141 140.373 229.75L140.248 229.978C139.988 230.63 140.109 231.514 140.106 232.209C140.098 233.645 140.034 235.08 139.805 236.5C139.425 238.855 138.505 240.557 137.791 242.75C137.135 244.769 136.849 248.646 137.473 250.656C138.596 254.27 139.039 258.881 138.882 262.635C138.709 266.752 138.094 270.755 139.083 274.83C138.858 276.109 138.792 276.989 139.122 278.25L139.187 278.554C139.411 279.504 140.031 280.057 140.175 280.927L141 281.375L140.875 280.627L141.688 280.938L141.875 280.127C142.047 281.228 142.152 281.916 141.872 283.001C141.503 284.436 141.544 286.13 141.849 287.572L142.75 287.875L142.875 287.127L143.25 287L143.412 286.751L143.969 290.752L144.93 287.586L145.85 287.219L145.793 286.806C145.725 286.226 145.892 285.894 146.127 285.375C146.241 285.864 146.351 286.337 146.414 286.835C146.491 287.439 146.787 287.972 146.874 288.604L147.253 288.295C148.052 290.888 149.012 293.75 149.444 296.405L151.697 302.644L151.995 303.459L152.906 305.725L153.404 307.215L153.846 308.243L153.385 308.879C153.509 309.244 153.643 309.513 153.819 309.853C154.202 310.593 154.135 311.472 153.836 312.233C153.675 312.642 153.413 312.929 153.125 313.254L152.897 313.189C152.535 313.097 152.672 313.125 152.25 313.125L152.123 313.375L151.75 313.375L151.938 313.812L151.75 314.125L151.375 313.877L150.623 313.625L150.128 313.384L149.451 313.779L149.229 313.759C148.194 312.743 146.685 311.375 146.059 310.067C145.689 309.292 146.072 309.949 145.662 309.273C145.323 308.714 145.001 308.285 144.888 307.627C144.816 307.205 144.922 307.322 144.71 306.991L142.32 303.321L142.128 304.396C141.171 302.078 140.497 299.521 139.742 297.125C138.274 292.465 136.915 287.633 136.268 282.78C135.733 281.29 135.626 279.398 135.438 277.822C134.45 275.23 134.606 271.557 134.538 268.788C134.398 263.058 134.278 257.169 134.757 251.456C134.672 249.297 135.131 247.191 135.441 245.062C136.398 238.488 137.868 232.412 139.585 226.008ZM135.438 277.822C135.626 279.398 135.733 281.29 136.268 282.78C136.915 287.633 138.274 292.465 139.742 297.125C140.497 299.521 141.171 302.078 142.128 304.396L142.32 303.321L144.71 306.991C144.922 307.322 144.816 307.205 144.888 307.627C145.001 308.285 145.323 308.714 145.662 309.273C146.072 309.949 145.689 309.292 146.059 310.067C146.685 311.375 148.194 312.743 149.229 313.759L149.451 313.779L150.128 313.384L150.623 313.625L151.375 313.877L151.75 314.125L151.938 313.812L151.75 313.375L152.123 313.375L152.25 313.125C152.672 313.125 152.535 313.097 152.897 313.189L153.125 313.254C153.413 312.929 153.675 312.642 153.836 312.233C154.135 311.472 154.202 310.593 153.819 309.853C153.643 309.513 153.509 309.244 153.385 308.879L153.846 308.243L153.404 307.215L152.906 305.725L151.995 303.459C151.583 303.358 151.726 303.408 151.363 303.267L151.125 303.173C150.913 303.605 150.862 303.936 150.429 304.184C149.298 304.833 148.7 304.764 147.5 304.479C147.205 303.985 146.906 303.436 146.53 303C146.059 302.454 145.347 302.156 144.95 301.532C144.232 300.403 144.015 298.965 143.307 297.8L142.286 295.843L141.738 294.105C141.764 292.811 141.122 291.282 140.509 290.17C139.209 287.811 138.925 285.374 138.071 282.875C137.508 281.228 136.614 279.54 135.966 277.888L135.438 277.822ZM141.849 287.572L142.184 288.937C142.875 289.973 142.862 290.54 142.817 291.75C142.787 292.558 142.54 295.024 143.133 295.586C143.569 296 144.187 296.123 144.748 296.293C145.44 296.967 145.607 297.603 145.633 298.565C145.656 299.445 145.657 299.975 146.372 300.622L146.688 300.876L146.878 300.396L147.501 300.71C147.75 300.596 147.892 300.567 148.062 300.312L148.25 299.875L148.625 299.75C148.909 299.239 148.939 299.202 148.877 298.625L149.375 298.5L149.5 298L149.289 297.748C149.139 297.004 149.048 297.027 149.444 296.405C149.012 293.75 148.052 290.888 147.253 288.295L146.874 288.604C146.787 287.972 146.491 287.439 146.414 286.835C146.351 286.337 146.241 285.864 146.127 285.375C145.892 285.894 145.725 286.226 145.793 286.806L145.85 287.219L144.93 287.586L143.969 290.752L143.412 286.751L143.25 287L142.875 287.127L142.75 287.875L141.849 287.572ZM134.757 251.456C134.278 257.169 134.398 263.058 134.538 268.788C134.606 271.557 134.45 275.23 135.438 277.822L135.966 277.888C136.614 279.54 137.508 281.228 138.071 282.875C138.925 285.374 139.209 287.811 140.509 290.17C141.122 291.282 141.764 292.811 141.738 294.105L142.286 295.843C142.255 294.404 142.424 292.415 142.023 291.064C141.736 290.1 140.876 289.323 140.513 288.348C140.064 287.139 140.129 285.788 139.731 284.563C138.808 281.718 137.199 279.061 136.593 276.093C135.851 272.465 136.584 268.75 136.605 265.115C136.623 261.922 136.2 258.889 135.773 255.75C135.567 254.24 135.767 252.69 134.757 251.456ZM139.991 227.464C139.642 228.738 139.455 229.664 139.634 230.976C140.033 233.907 138.64 239.322 137.051 241.75C136.349 242.823 136.565 243.772 136.501 245C136.315 248.575 136.217 252.245 137.101 255.764C137.313 256.609 137.76 257.398 137.889 258.252C138.824 264.465 137.018 270.682 138.013 276.926C138.363 279.121 139.764 280.979 140.343 283.084C140.914 285.159 140.547 287.312 142.184 288.937L141.849 287.572C141.544 286.13 141.503 284.436 141.872 283.001C142.152 281.916 142.047 281.228 141.875 280.127L141.688 280.938L140.875 280.627L141 281.375L140.175 280.927C140.031 280.057 139.411 279.504 139.187 278.554L139.122 278.25C138.792 276.989 138.858 276.109 139.083 274.83C138.094 270.755 138.709 266.752 138.882 262.635C139.039 258.881 138.596 254.27 137.473 250.656C136.849 248.646 137.135 244.769 137.791 242.75C138.505 240.557 139.425 238.855 139.805 236.5C140.034 235.08 140.098 233.645 140.106 232.209C140.109 231.514 139.988 230.63 140.248 229.978L140.373 229.75C139.968 229.141 140.043 228.2 139.991 227.464ZM147.501 300.71C147.733 301.563 147.765 302.342 148.553 302.875C148.719 302.987 148.935 303.031 149.125 303.081C149.872 302.711 150.162 302.336 150.625 301.652C151.076 301.797 150.869 301.653 151.128 302.058C151.404 302.489 151.276 302.335 151.697 302.644L149.444 296.405C149.048 297.027 149.139 297.004 149.289 297.748L149.5 298L149.375 298.5L148.877 298.625C148.939 299.202 148.909 299.239 148.625 299.75L148.25 299.875L148.062 300.312C147.892 300.567 147.75 300.596 147.501 300.71Z"/>
	<path fill="#F7F8F0" fill-opacity="0.77254903" transform="scale(1.33333 1.33333)" d="M147.501 300.71C147.75 300.596 147.892 300.567 148.062 300.312L148.25 299.875L148.625 299.75C148.909 299.239 148.939 299.202 148.877 298.625L149.375 298.5L149.5 298L149.289 297.748C149.139 297.004 149.048 297.027 149.444 296.405L151.697 302.644C151.276 302.335 151.404 302.489 151.128 302.058C150.869 301.653 151.076 301.797 150.625 301.652C150.162 302.336 149.872 302.711 149.125 303.081C148.935 303.031 148.719 302.987 148.553 302.875C147.765 302.342 147.733 301.563 147.501 300.71Z"/>
	<path fill="#F7F8F0" fill-opacity="0.77254903" transform="scale(1.33333 1.33333)" d="M139.991 227.464C140.043 228.2 139.968 229.141 140.373 229.75L140.248 229.978C139.988 230.63 140.109 231.514 140.106 232.209C140.098 233.645 140.034 235.08 139.805 236.5C139.425 238.855 138.505 240.557 137.791 242.75C137.135 244.769 136.849 248.646 137.473 250.656C138.596 254.27 139.039 258.881 138.882 262.635C138.709 266.752 138.094 270.755 139.083 274.83C138.858 276.109 138.792 276.989 139.122 278.25L139.187 278.554C139.411 279.504 140.031 280.057 140.175 280.927L141 281.375L140.875 280.627L141.688 280.938L141.875 280.127C142.047 281.228 142.152 281.916 141.872 283.001C141.503 284.436 141.544 286.13 141.849 287.572L142.184 288.937C140.547 287.312 140.914 285.159 140.343 283.084C139.764 280.979 138.363 279.121 138.013 276.926C137.018 270.682 138.824 264.465 137.889 258.252C137.76 257.398 137.313 256.609 137.101 255.764C136.217 252.245 136.315 248.575 136.501 245C136.565 243.772 136.349 242.823 137.051 241.75C138.64 239.322 140.033 233.907 139.634 230.976C139.455 229.664 139.642 228.738 139.991 227.464Z"/>
	<path fill="#F7F8F0" fill-opacity="0.51372552" transform="scale(1.33333 1.33333)" d="M134.757 251.456C135.767 252.69 135.567 254.24 135.773 255.75C136.2 258.889 136.623 261.922 136.605 265.115C136.584 268.75 135.851 272.465 136.593 276.093C137.199 279.061 138.808 281.718 139.731 284.563C140.129 285.788 140.064 287.139 140.513 288.348C140.876 289.323 141.736 290.1 142.023 291.064C142.424 292.415 142.255 294.404 142.286 295.843L141.738 294.105C141.764 292.811 141.122 291.282 140.509 290.17C139.209 287.811 138.925 285.374 138.071 282.875C137.508 281.228 136.614 279.54 135.966 277.888L135.438 277.822C134.45 275.23 134.606 271.557 134.538 268.788C134.398 263.058 134.278 257.169 134.757 251.456Z"/>
	<path fill="#F7F8F0" fill-opacity="0.79215688" transform="scale(1.33333 1.33333)" d="M141.849 287.572L142.75 287.875L142.875 287.127L143.25 287L143.412 286.751L143.969 290.752L144.93 287.586L145.85 287.219L145.793 286.806C145.725 286.226 145.892 285.894 146.127 285.375C146.241 285.864 146.351 286.337 146.414 286.835C146.491 287.439 146.787 287.972 146.874 288.604L147.253 288.295C148.052 290.888 149.012 293.75 149.444 296.405C149.048 297.027 149.139 297.004 149.289 297.748L149.5 298L149.375 298.5L148.877 298.625C148.939 299.202 148.909 299.239 148.625 299.75L148.25 299.875L148.062 300.312C147.892 300.567 147.75 300.596 147.501 300.71L146.878 300.396L146.688 300.876L146.372 300.622C145.657 299.975 145.656 299.445 145.633 298.565C145.607 297.603 145.44 296.967 144.748 296.293C144.187 296.123 143.569 296 143.133 295.586C142.54 295.024 142.787 292.558 142.817 291.75C142.862 290.54 142.875 289.973 142.184 288.937L141.849 287.572Z"/>
	<path fill="#F7F8F0" fill-opacity="0.29019609" transform="scale(1.33333 1.33333)" d="M135.438 277.822L135.966 277.888C136.614 279.54 137.508 281.228 138.071 282.875C138.925 285.374 139.209 287.811 140.509 290.17C141.122 291.282 141.764 292.811 141.738 294.105L142.286 295.843L143.307 297.8C144.015 298.965 144.232 300.403 144.95 301.532C145.347 302.156 146.059 302.454 146.53 303C146.906 303.436 147.205 303.985 147.5 304.479C148.7 304.764 149.298 304.833 150.429 304.184C150.862 303.936 150.913 303.605 151.125 303.173L151.363 303.267C151.726 303.408 151.583 303.358 151.995 303.459L152.906 305.725L153.404 307.215L153.846 308.243L153.385 308.879C153.509 309.244 153.643 309.513 153.819 309.853C154.202 310.593 154.135 311.472 153.836 312.233C153.675 312.642 153.413 312.929 153.125 313.254L152.897 313.189C152.535 313.097 152.672 313.125 152.25 313.125L152.123 313.375L151.75 313.375L151.938 313.812L151.75 314.125L151.375 313.877L150.623 313.625L150.128 313.384L149.451 313.779L149.229 313.759C148.194 312.743 146.685 311.375 146.059 310.067C145.689 309.292 146.072 309.949 145.662 309.273C145.323 308.714 145.001 308.285 144.888 307.627C144.816 307.205 144.922 307.322 144.71 306.991L142.32 303.321L142.128 304.396C141.171 302.078 140.497 299.521 139.742 297.125C138.274 292.465 136.915 287.633 136.268 282.78C135.733 281.29 135.626 279.398 135.438 277.822ZM135.438 277.822C135.626 279.398 135.733 281.29 136.268 282.78L136.384 280.826L136.424 281.075C136.668 282.532 137.348 283.729 137.546 285.243C137.94 288.265 140.099 290.745 140.787 293.72C140.863 294.051 140.952 294.307 141.072 294.618C141.255 295.092 141.242 295.507 141.261 296.011C141.316 297.539 142.075 298.665 142.033 300.25C143.261 302.056 145.334 304.195 146.06 306.196C146.578 306.666 147.198 307.281 147.875 307.508C148.262 307.638 148.624 307.592 149.008 307.784C149.426 307.993 149.879 308.383 150.306 308.528C150.815 308.701 150.917 308.566 151.375 308.396L151.796 307.611L152.151 307.249L151.996 306.239L152.094 306.096C152.489 305.704 152.364 305.807 152.906 305.725L151.995 303.459C151.583 303.358 151.726 303.408 151.363 303.267L151.125 303.173C150.913 303.605 150.862 303.936 150.429 304.184C149.298 304.833 148.7 304.764 147.5 304.479C147.205 303.985 146.906 303.436 146.53 303C146.059 302.454 145.347 302.156 144.95 301.532C144.232 300.403 144.015 298.965 143.307 297.8L142.286 295.843L141.738 294.105C141.764 292.811 141.122 291.282 140.509 290.17C139.209 287.811 138.925 285.374 138.071 282.875C137.508 281.228 136.614 279.54 135.966 277.888L135.438 277.822ZM151.996 306.239L152.151 307.249L151.796 307.611L151.375 308.396C150.917 308.566 150.815 308.701 150.306 308.528C149.879 308.383 149.426 307.993 149.008 307.784C148.624 307.592 148.262 307.638 147.875 307.508C147.198 307.281 146.578 306.666 146.06 306.196C146.862 307.838 147.457 308.38 149.075 309.174L149.626 308.874L150.032 308.997C150.619 309.164 150.382 309.121 151 309.125L151.125 309.623L152.656 308.875C152.84 308.104 152.847 307.8 153.404 307.215L152.906 305.725C152.364 305.807 152.489 305.704 152.094 306.096L151.996 306.239Z"/>
	<path fill="#F8F7F2" fill-opacity="0.38039216" transform="scale(1.33333 1.33333)" d="M151.996 306.239L152.094 306.096C152.489 305.704 152.364 305.807 152.906 305.725L153.404 307.215C152.847 307.8 152.84 308.104 152.656 308.875L151.125 309.623L151 309.125C150.382 309.121 150.619 309.164 150.032 308.997L149.626 308.874L149.075 309.174C147.457 308.38 146.862 307.838 146.06 306.196C146.578 306.666 147.198 307.281 147.875 307.508C148.262 307.638 148.624 307.592 149.008 307.784C149.426 307.993 149.879 308.383 150.306 308.528C150.815 308.701 150.917 308.566 151.375 308.396L151.796 307.611L152.151 307.249L151.996 306.239Z"/>
	<path fill="#F7F8EE" fill-opacity="0.40392157" transform="scale(1.33333 1.33333)" d="M135.438 277.822L135.966 277.888C136.614 279.54 137.508 281.228 138.071 282.875C138.925 285.374 139.209 287.811 140.509 290.17C141.122 291.282 141.764 292.811 141.738 294.105L142.286 295.843L143.307 297.8C144.015 298.965 144.232 300.403 144.95 301.532C145.347 302.156 146.059 302.454 146.53 303C146.906 303.436 147.205 303.985 147.5 304.479C148.7 304.764 149.298 304.833 150.429 304.184C150.862 303.936 150.913 303.605 151.125 303.173L151.363 303.267C151.726 303.408 151.583 303.358 151.995 303.459L152.906 305.725C152.364 305.807 152.489 305.704 152.094 306.096L151.996 306.239L152.151 307.249L151.796 307.611L151.375 308.396C150.917 308.566 150.815 308.701 150.306 308.528C149.879 308.383 149.426 307.993 149.008 307.784C148.624 307.592 148.262 307.638 147.875 307.508C147.198 307.281 146.578 306.666 146.06 306.196C145.334 304.195 143.261 302.056 142.033 300.25C142.075 298.665 141.316 297.539 141.261 296.011C141.242 295.507 141.255 295.092 141.072 294.618C140.952 294.307 140.863 294.051 140.787 293.72C140.099 290.745 137.94 288.265 137.546 285.243C137.348 283.729 136.668 282.532 136.424 281.075L136.384 280.826L136.268 282.78C135.733 281.29 135.626 279.398 135.438 277.822ZM141.738 294.105C141.899 296.406 142.413 299.222 143.629 301.214C144.475 302.599 145.61 303.741 146.417 305.147C146.835 305.876 147.218 306.453 148.109 306.623C148.926 306.779 149.568 306.724 150.375 307.048C151.269 306.88 151.359 306.876 151.996 306.239L152.094 306.096C152.489 305.704 152.364 305.807 152.906 305.725L151.995 303.459C151.583 303.358 151.726 303.408 151.363 303.267L151.125 303.173C150.913 303.605 150.862 303.936 150.429 304.184C149.298 304.833 148.7 304.764 147.5 304.479C147.205 303.985 146.906 303.436 146.53 303C146.059 302.454 145.347 302.156 144.95 301.532C144.232 300.403 144.015 298.965 143.307 297.8L142.286 295.843L141.738 294.105Z"/>
	<path fill="#F8F7F2" fill-opacity="0.49411765" transform="scale(1.33333 1.33333)" d="M141.738 294.105L142.286 295.843L143.307 297.8C144.015 298.965 144.232 300.403 144.95 301.532C145.347 302.156 146.059 302.454 146.53 303C146.906 303.436 147.205 303.985 147.5 304.479C148.7 304.764 149.298 304.833 150.429 304.184C150.862 303.936 150.913 303.605 151.125 303.173L151.363 303.267C151.726 303.408 151.583 303.358 151.995 303.459L152.906 305.725C152.364 305.807 152.489 305.704 152.094 306.096L151.996 306.239C151.359 306.876 151.269 306.88 150.375 307.048C149.568 306.724 148.926 306.779 148.109 306.623C147.218 306.453 146.835 305.876 146.417 305.147C145.61 303.741 144.475 302.599 143.629 301.214C142.413 299.222 141.899 296.406 141.738 294.105Z"/>
	<path fill="#FFEAB3" transform="scale(1.33333 1.33333)" d="M301.557 157.217C305.739 159.402 309.514 161.922 313.488 164.43C318.862 167.821 324.211 171.101 329.079 175.223C340.597 184.976 350.057 197.282 356.966 210.662C359.557 215.68 361.943 220.906 363.616 226.308C367.713 239.543 369.72 253.472 368.934 267.342C368.062 282.753 362.964 299.135 355.733 312.744C352.249 319.303 347.72 325.382 343.182 331.246C341.587 331.499 340.061 332.701 338.672 333.495C336.709 334.618 334.722 335.689 332.663 336.622C322.707 341.135 311.417 344.039 300.557 345.264C297.183 345.645 293.898 346.017 290.487 345.898C284.893 345.704 279.714 343.995 274.578 341.928C262.162 336.93 249.785 329.044 240.662 319.153C230.291 307.909 222.145 292.738 218.886 277.766C217.034 269.261 216.606 260.452 217.027 251.768C218.084 229.917 226.948 207.262 241.032 190.523C243.62 187.448 246.609 184.621 249.57 181.911C254.401 177.044 260.366 172.639 266.136 168.946C272.65 165.273 278.642 161.461 286.019 159.655C288.606 159.022 291.38 158.463 294.03 158.141C296.334 157.86 299.49 158.264 301.557 157.217ZM249.57 181.911C250.698 181.799 251.596 180.497 252.558 179.808L252.812 179.98C254.005 179.692 255.476 178.724 256.352 177.864L256.999 177.249C257.481 176.964 257.819 176.485 258.249 176.249C258.77 175.962 259.044 175.499 259.499 175.249C260.274 174.822 259.477 175.527 260.233 174.772C260.56 174.446 260.869 174.142 261.25 173.873L264.125 171.878L266 170.623L266.499 170.249C267.072 169.973 267.166 169.852 267.623 169.375C267.107 169.033 266.733 169.026 266.136 168.946C260.366 172.639 254.401 177.044 249.57 181.911Z"/>
	<path fill="#FA953C" transform="scale(1.33333 1.33333)" d="M339.103 207.634C346.045 216.535 350.111 227.197 348.622 238.612L348.257 240.607L348.224 238.625L347.568 238.418L347.911 235.191C348.701 225.14 344.996 215.664 338.561 208.064L339.103 207.634Z"/>
	<path fill="#FFEAB6" fill-opacity="0.95686275" transform="scale(1.33333 1.33333)" d="M249.57 181.911C254.401 177.044 260.366 172.639 266.136 168.946C266.733 169.026 267.107 169.033 267.623 169.375C267.166 169.852 267.072 169.973 266.499 170.249L266 170.623L264.125 171.878L261.25 173.873C260.869 174.142 260.56 174.446 260.233 174.772C259.477 175.527 260.274 174.822 259.499 175.249C259.044 175.499 258.77 175.962 258.249 176.249C257.819 176.485 257.481 176.964 256.999 177.249L256.352 177.864C255.476 178.724 254.005 179.692 252.812 179.98L252.558 179.808C251.596 180.497 250.698 181.799 249.57 181.911Z"/>
	<path fill="#E88231" transform="scale(1.33333 1.33333)" d="M305.953 201.396C312.769 197.977 320.479 197.899 327.62 200.312C331.895 201.756 336.321 203.983 339.103 207.634L338.561 208.064C335.514 204.847 331.593 202.732 327.443 201.277C321.121 199.06 313.328 198.989 307.245 201.937C306.639 201.92 306.427 201.762 305.953 201.396Z"/>
	<path fill="#FA953C" transform="scale(1.33333 1.33333)" d="M295.396 234.25C292.575 227.699 292.956 220.556 295.272 213.911C297.081 208.721 300.944 203.822 305.953 201.396C306.427 201.762 306.639 201.92 307.245 201.937C300.68 206.511 296.409 212.925 295.024 220.875C294.314 224.945 294.531 228.829 295.39 232.859C295.496 233.36 295.447 233.745 295.396 234.25Z"/>
	<path fill="#E88231" transform="scale(1.33333 1.33333)" d="M348.257 240.607C347.313 247.012 343.82 252.015 338.689 255.792C336.59 257.337 334.376 258.357 331.901 259.165C324.842 261.469 315.956 259.818 309.501 256.426C302.61 252.806 296.67 247.502 291.421 241.826C285.017 234.9 280.018 227.977 275.404 219.75C272.694 214.919 270.273 210.072 268.648 204.75L266.627 196.125L266.875 195.877C267.284 196.395 267.343 196.614 267.447 197.251C268.014 200.734 269.094 204.251 270.362 207.538C270.938 209.028 271.744 210.508 272.246 212.005C273.078 214.484 274.812 217.051 276.05 219.375C282.06 230.651 290.139 242.385 301.193 249.246C302.879 250.648 304.952 251.769 306.874 252.815C310.719 254.906 314.646 256.759 318.996 257.541C325.097 258.638 331.909 258.039 337.263 254.702C343.313 250.93 345.955 245.095 347.568 238.418L348.224 238.625L348.257 240.607Z"/>
	<path fill="#FFDD75" transform="scale(1.33333 1.33333)" d="M307.245 201.937C313.328 198.989 321.121 199.06 327.443 201.277C331.593 202.732 335.514 204.847 338.561 208.064C344.996 215.664 348.701 225.14 347.911 235.191L347.568 238.418C345.955 245.095 343.313 250.93 337.263 254.702C331.909 258.039 325.097 258.638 318.996 257.541C314.646 256.759 310.719 254.906 306.874 252.815C304.952 251.769 302.879 250.648 301.193 249.246L301.376 248.91C301.644 248.221 301.394 247.513 301.169 246.854C299.696 242.524 297.32 238.4 295.396 234.25C295.447 233.745 295.496 233.36 295.39 232.859C294.531 228.829 294.314 224.945 295.024 220.875C296.409 212.925 300.68 206.511 307.245 201.937Z"/>
</svg>