<svg width="512" height="512" xmlns="http://www.w3.org/2000/svg" xmlns:xlink="http://www.w3.org/1999/xlink" xml:space="preserve" overflow="hidden"><defs><clipPath id="clip0"><rect x="384" y="104" width="512" height="512"/></clipPath></defs><g clip-path="url(#clip0)" transform="translate(-384 -104)"><path d="M832 264 704 264 704 232 832 232 832 264ZM432 168C405.5 168 384 189.5 384 216L384 280C384 306.5 405.5 328 432 328L848 328C874.5 328 896 306.5 896 280L896 216C896 189.5 874.5 168 848 168L432 168ZM832 456 832 488 576 488 576 456 832 456ZM432 392C405.5 392 384 413.5 384 440L384 504C384 530.5 405.5 552 432 552L848 552C874.5 552 896 530.5 896 504L896 440C896 413.5 874.5 392 848 392L432 392Z" fill="#FFD36B"/></g></svg>