<svg width="448" height="512" xmlns="http://www.w3.org/2000/svg" xmlns:xlink="http://www.w3.org/1999/xlink" xml:space="preserve" overflow="hidden"><defs><clipPath id="clip0"><rect x="416" y="104" width="448" height="512"/></clipPath></defs><g clip-path="url(#clip0)" transform="translate(-416 -104)"><path d="M496 208C482.7 208 472 197.3 472 184 472 170.7 482.7 160 496 160 509.3 160 520 170.7 520 184 520 197.3 509.3 208 496 208ZM528.4 257.2C556.4 244.8 576 216.7 576 184 576 139.8 540.2 104 496 104 451.8 104 416 139.8 416 184 416 216.8 435.7 245 464 257.3L464 462.7C435.7 475 416 503.2 416 536 416 580.2 451.8 616 496 616 540.2 616 576 580.2 576 536 576 503.2 556.3 475 528 462.7L528 376C554.7 396.1 588 408 624 408L710.7 408C723 436.3 751.2 456 784 456 828.2 456 864 420.2 864 376 864 331.8 828.2 296 784 296 751.2 296 723 315.7 710.7 344L624 344C574.1 344 533 305.9 528.4 257.2ZM496 560C482.7 560 472 549.3 472 536 472 522.7 482.7 512 496 512 509.3 512 520 522.7 520 536 520 549.3 509.3 560 496 560ZM808 376C808 389.3 797.3 400 784 400 770.7 400 760 389.3 760 376 760 362.7 770.7 352 784 352 797.3 352 808 362.7 808 376Z" fill="#FFD36B"/></g></svg>