<svg width="96" height="96" xmlns="http://www.w3.org/2000/svg" xmlns:xlink="http://www.w3.org/1999/xlink" xml:space="preserve" overflow="hidden"><defs><clipPath id="clip0"><rect x="33" y="175" width="96" height="96"/></clipPath></defs><g clip-path="url(#clip0)" transform="translate(-33 -175)"><path d="M59 234.64C62.3137 234.64 65 237.326 65 240.64 65 243.954 62.3137 246.64 59 246.64 55.6863 246.64 53 243.954 53 240.64 53.0039 237.328 55.6879 234.644 59 234.64M59 232.64C54.5817 232.64 51 236.222 51 240.64 51 245.058 54.5817 248.64 59 248.64 63.4183 248.64 67 245.058 67 240.64 67 236.222 63.4183 232.64 59 232.64Z" stroke="#FFD96D" fill="#443D2F"/><path d="M107.5 227.8C110.814 227.8 113.5 230.486 113.5 233.8 113.5 237.114 110.814 239.8 107.5 239.8 104.186 239.8 101.5 237.114 101.5 233.8 101.504 230.488 104.188 227.804 107.5 227.8M107.5 225.8C103.082 225.8 99.5 229.382 99.5 233.8 99.5 238.218 103.082 241.8 107.5 241.8 111.918 241.8 115.5 238.218 115.5 233.8 115.5 229.382 111.918 225.8 107.5 225.8Z" stroke="#FFD96D" fill="#443D2F"/><path d="M77.75 189.61C81.0637 189.61 83.75 192.296 83.75 195.61 83.75 198.924 81.0637 201.61 77.75 201.61 74.4363 201.61 71.75 198.924 71.75 195.61 71.7539 192.298 74.4379 189.614 77.75 189.61M77.75 187.61C73.3317 187.61 69.75 191.192 69.75 195.61 69.75 200.028 73.3317 203.61 77.75 203.61 82.1683 203.61 85.75 200.028 85.75 195.61 85.75 191.192 82.1683 187.61 77.75 187.61Z" stroke="#FFD96D" fill="#443D2F"/><path d="M114.983 210.036C114.508 209.755 113.894 209.912 113.613 210.387 113.613 210.387 113.613 210.387 113.613 210.387L109.763 216.887C109.756 216.898 109.748 216.897 109.745 216.887 107.446 206.78 99.9582 198.65 90.074 195.529 89.803 195.445 89.529 195.364 89.254 195.288 88.7256 195.127 88.167 195.426 88.0064 195.954 87.8457 196.482 88.1439 197.041 88.6723 197.202 88.6871 197.206 88.702 197.21 88.717 197.214 88.973 197.285 89.227 197.36 89.479 197.439 98.8299 200.393 105.863 208.157 107.879 217.754 107.879 217.766 107.879 217.771 107.864 217.765L100.887 213.633C100.407 213.36 99.7965 213.527 99.5231 214.007 99.2563 214.475 99.4084 215.07 99.867 215.353L108.727 220.6C108.955 220.735 109.227 220.774 109.484 220.709 109.741 220.643 109.962 220.478 110.097 220.25L115.333 211.406C115.615 210.931 115.458 210.318 114.983 210.036Z" stroke="#FFD96D" fill="#443D2F"/><path d="M101.792 242.564C101.406 242.169 100.773 242.162 100.378 242.548 100.378 242.548 100.377 242.549 100.377 242.549 100.187 242.734 99.996 242.917 99.801 243.097 92.5673 249.717 82.3269 251.925 73.008 248.873 72.996 248.873 72.995 248.861 73.008 248.855L80.076 244.878C80.5573 244.607 80.7279 243.997 80.457 243.516 80.1861 243.035 79.5763 242.864 79.095 243.135L70.121 248.185C69.6395 248.455 69.4683 249.065 69.7388 249.547 69.7388 249.547 69.7389 249.547 69.739 249.547L74.779 258.503C75.0499 258.985 75.6599 259.155 76.1415 258.884 76.6231 258.614 76.7939 258.004 76.523 257.522L72.823 250.94C72.817 250.928 72.823 250.922 72.834 250.926 75.6117 251.794 78.5049 252.235 81.415 252.235 88.7268 252.244 95.7753 249.507 101.165 244.566 101.374 244.374 101.579 244.177 101.783 243.978 102.176 243.59 102.18 242.957 101.792 242.564Z" stroke="#FFD96D" fill="#443D2F"/><path d="M65.288 200.18C65.1034 199.992 64.8518 199.884 64.588 199.88L54.311 199.766 54.3 199.766C53.7477 199.763 53.2975 200.208 53.2945 200.76 53.2915 201.313 53.7367 201.763 54.289 201.766L61.845 201.85C61.858 201.85 61.861 201.858 61.851 201.867 54.2483 208.912 50.9521 219.46 53.191 229.58 53.253 229.858 53.3197 230.135 53.391 230.412 53.5049 230.853 53.9025 231.161 54.358 231.162 54.4427 231.162 54.5271 231.151 54.609 231.13 55.1435 230.992 55.4649 230.447 55.327 229.912 55.2603 229.656 55.1983 229.399 55.141 229.141 53.0237 219.566 56.2316 209.594 63.534 203.049 63.544 203.041 63.552 203.049 63.551 203.057L63.462 211.166C63.4559 211.718 63.8986 212.171 64.4509 212.177 64.4509 212.177 64.451 212.177 64.451 212.177L64.462 212.177C65.01 212.177 65.456 211.736 65.462 211.188L65.576 200.888C65.5775 200.623 65.474 200.369 65.288 200.18Z" stroke="#FFD96D" fill="#443D2F"/></g></svg>