<svg width="96" height="96" xmlns="http://www.w3.org/2000/svg" xmlns:xlink="http://www.w3.org/1999/xlink" xml:space="preserve" overflow="hidden"><defs><clipPath id="clip0"><rect x="317" y="609" width="96" height="96"/></clipPath></defs><g clip-path="url(#clip0)" transform="translate(-317 -609)"><path d="M362.22 681.81C349.676 679.744 340.483 668.883 340.52 656.17 340.539 654.595 340.699 653.026 341 651.48L341.08 651.48 342.91 654.65C343.462 655.608 344.687 655.937 345.645 655.385 346.603 654.833 346.932 653.608 346.38 652.65L342.13 645.3C341.865 644.842 341.43 644.508 340.92 644.37 340.407 644.232 339.86 644.304 339.4 644.57L332 648.84C331.021 649.352 330.643 650.56 331.155 651.539 331.667 652.518 332.875 652.896 333.854 652.384 333.904 652.358 333.953 652.33 334 652.3L337.06 650.53C336.704 652.389 336.523 654.277 336.52 656.17 336.475 670.826 347.062 683.352 361.52 685.75L361.86 685.75C362.965 685.838 363.932 685.015 364.02 683.91 364.108 682.805 363.285 681.838 362.18 681.75Z" stroke="#FFD96D" fill="#FFD96D"/><path d="M396.52 656.17C396.524 652.597 395.891 649.051 394.65 645.7 394.263 644.664 393.111 644.138 392.075 644.525 391.039 644.912 390.513 646.065 390.9 647.1 395.907 660.558 389.057 675.527 375.599 680.534 375.503 680.57 375.406 680.605 375.31 680.64L375.31 680.64 377.13 677.46C377.682 676.499 377.351 675.272 376.39 674.72 375.429 674.168 374.202 674.499 373.65 675.46L369.45 682.83C368.901 683.788 369.232 685.01 370.19 685.56 370.19 685.56 370.19 685.56 370.19 685.56L377.56 689.77C378.521 690.322 379.748 689.991 380.3 689.03 380.852 688.069 380.521 686.842 379.56 686.29L376.44 684.52C388.506 680.334 396.576 668.941 396.52 656.17Z" stroke="#FFD96D" fill="#FFD96D"/><path d="M379.52 636.14C378.415 636.14 377.52 637.035 377.52 638.14 377.52 639.245 378.415 640.14 379.52 640.14L387.74 640.14C387.817 640.145 387.893 640.145 387.97 640.14 388.355 640.14 388.731 640.025 389.05 639.81L389.19 639.72 389.25 639.67 389.25 639.67 389.38 639.57C389.771 639.197 389.995 638.681 390 638.14L390 629.66C390 628.555 389.105 627.66 388 627.66 386.895 627.66 386 628.555 386 629.66L386 633.31 386 633.31C373.389 622.564 354.454 624.076 343.708 636.687 343.662 636.741 343.616 636.795 343.57 636.85 342.858 637.695 342.965 638.958 343.81 639.67 344.655 640.382 345.918 640.275 346.63 639.43 355.814 628.491 372.102 627.009 383.11 636.11Z" stroke="#FFD96D" fill="#FFD96D"/></g></svg>